<svg width="230pt" height="36pt" viewBox="0 0 230 36" xmlns="http://www.w3.org/2000/svg"><g id="fontsvg1712789647985" stroke-linecap="round" fill-rule="evenodd" fill="#C777F1"><path d="M 188.77 9.181 L 189.063 9.181 A 3.408 3.408 0 0 1 189.515 8.381 A 2.157 2.157 0 0 1 191.309 7.521 Q 193.427 7.521 193.778 10.103 A 8.409 8.409 0 0 1 193.848 11.232 L 193.848 22.267 A 26.118 26.118 0 0 1 193.719 24.97 Q 193.437 27.669 192.537 29.222 A 4.545 4.545 0 0 1 191.504 30.47 A 8.792 8.792 0 0 1 186.866 32.809 A 12.55 12.55 0 0 1 184.57 33.01 Q 178.409 32.529 177.296 30.41 A 2.148 2.148 0 0 1 177.051 29.396 L 177.051 28.81 A 1.659 1.659 0 0 1 177.869 27.316 Q 178.377 26.997 179.199 26.857 L 183.594 28.127 A 7.468 7.468 0 0 0 184.241 28.2 A 10.124 10.124 0 0 0 184.961 28.224 A 4.488 4.488 0 0 0 186.49 27.979 Q 187.999 27.436 188.672 25.685 Q 188.848 24.848 188.865 24.329 A 3.281 3.281 0 0 0 188.867 24.22 L 188.867 23.342 A 0.281 0.281 0 0 0 188.858 23.264 Q 188.833 23.178 188.744 23.155 A 0.288 0.288 0 0 0 188.672 23.146 L 188.477 23.146 L 187.598 24.611 A 5.637 5.637 0 0 1 185.099 25.605 A 7.477 7.477 0 0 1 183.985 25.685 A 6.326 6.326 0 0 1 178.802 23.054 Q 178.041 22.083 177.425 20.752 A 16.222 16.222 0 0 1 177.149 20.119 A 10.181 10.181 0 0 1 176.645 17.891 A 12.938 12.938 0 0 1 176.563 16.408 A 9.819 9.819 0 0 1 177.304 12.512 Q 178.289 10.208 180.582 8.655 A 12.46 12.46 0 0 1 181.836 7.912 Q 182.822 7.429 184.239 7.344 A 10.443 10.443 0 0 1 184.863 7.326 A 5.09 5.09 0 0 1 186.894 7.72 A 4.852 4.852 0 0 1 188.77 9.181 Z M 46.558 14.552 L 46.558 22.072 A 6.626 6.626 0 0 1 46.455 23.292 Q 46.088 25.244 44.409 25.588 A 1.663 1.663 0 0 0 44.23 25.597 Q 44.041 25.617 43.922 25.685 A 0.502 0.502 0 0 0 43.921 25.685 A 2.684 2.684 0 0 1 42.676 25.415 Q 41.564 24.841 41.34 23.049 A 7.926 7.926 0 0 1 41.284 22.072 L 41.284 16.896 A 20.453 20.453 0 0 0 41.243 15.545 Q 41.099 13.377 40.449 12.598 A 1.283 1.283 0 0 0 40.112 12.306 A 4.122 4.122 0 0 0 39.343 12.02 A 3.173 3.173 0 0 0 38.55 11.916 L 38.159 11.916 A 3.46 3.46 0 0 0 37.107 12.253 Q 35.816 12.936 35.816 14.748 A 0.047 0.047 0 0 0 35.78 14.784 Q 35.73 14.899 35.72 15.376 A 12.405 12.405 0 0 0 35.718 15.627 L 35.718 22.072 A 6.626 6.626 0 0 1 35.615 23.292 Q 35.248 25.244 33.569 25.588 A 1.663 1.663 0 0 0 33.39 25.597 Q 33.2 25.617 33.081 25.685 Q 30.857 25.685 30.509 23.044 A 8.222 8.222 0 0 1 30.444 21.974 L 30.444 11.135 A 7.009 7.009 0 0 1 30.556 9.821 Q 30.968 7.673 32.898 7.531 A 3.828 3.828 0 0 1 33.179 7.521 A 2.175 2.175 0 0 1 34.563 8.032 Q 34.892 8.295 35.193 8.693 A 5.6 5.6 0 0 1 35.523 9.181 L 35.718 9.181 A 3.875 3.875 0 0 1 37.477 7.877 Q 38.155 7.611 39.01 7.501 A 10.194 10.194 0 0 1 40.308 7.424 A 7.444 7.444 0 0 1 42.664 7.771 Q 45.335 8.66 46.265 11.818 A 12.79 12.79 0 0 1 46.558 14.552 Z M 227.173 14.552 L 227.173 22.072 A 6.626 6.626 0 0 1 227.07 23.292 Q 226.703 25.244 225.025 25.588 A 1.663 1.663 0 0 0 224.845 25.597 Q 224.656 25.617 224.537 25.685 A 0.502 0.502 0 0 0 224.536 25.685 A 2.684 2.684 0 0 1 223.291 25.415 Q 222.179 24.841 221.956 23.049 A 7.926 7.926 0 0 1 221.9 22.072 L 221.9 16.896 A 20.453 20.453 0 0 0 221.858 15.545 Q 221.714 13.377 221.065 12.598 A 1.283 1.283 0 0 0 220.728 12.306 A 4.122 4.122 0 0 0 219.959 12.02 A 3.173 3.173 0 0 0 219.165 11.916 L 218.775 11.916 A 3.46 3.46 0 0 0 217.722 12.253 Q 216.431 12.936 216.431 14.748 A 0.047 0.047 0 0 0 216.395 14.784 Q 216.345 14.899 216.335 15.376 A 12.405 12.405 0 0 0 216.333 15.627 L 216.333 22.072 A 6.626 6.626 0 0 1 216.23 23.292 Q 215.863 25.244 214.185 25.588 A 1.663 1.663 0 0 0 214.005 25.597 Q 213.815 25.617 213.696 25.685 Q 211.472 25.685 211.124 23.044 A 8.222 8.222 0 0 1 211.06 21.974 L 211.06 11.135 A 7.009 7.009 0 0 1 211.171 9.821 Q 211.583 7.673 213.513 7.531 A 3.828 3.828 0 0 1 213.794 7.521 A 2.175 2.175 0 0 1 215.179 8.032 Q 215.508 8.295 215.809 8.693 A 5.6 5.6 0 0 1 216.138 9.181 L 216.333 9.181 A 3.875 3.875 0 0 1 218.092 7.877 Q 218.77 7.611 219.625 7.501 A 10.194 10.194 0 0 1 220.923 7.424 A 7.444 7.444 0 0 1 223.279 7.771 Q 225.95 8.66 226.88 11.818 A 12.79 12.79 0 0 1 227.173 14.552 Z M 110.156 18.215 L 110.352 18.215 A 0.169 0.169 0 0 0 110.449 18.125 Q 110.877 17.494 112.5 12.453 Q 113.899 8.186 114.975 8.062 A 0.56 0.56 0 0 1 115.039 8.058 A 0.103 0.103 0 0 1 115.094 7.973 Q 115.233 7.881 115.723 7.863 A 5.308 5.308 0 0 1 116.718 8.052 Q 118.322 8.537 118.359 10.039 A 2.899 2.899 0 0 1 118.36 10.109 L 118.36 10.402 Q 118.36 11.336 115.534 17.887 A 343.43 343.43 0 0 1 114.453 20.363 A 462.222 462.222 0 0 1 112.944 24.079 Q 110.29 30.529 109.246 32.346 A 5.636 5.636 0 0 1 108.985 32.765 A 5.133 5.133 0 0 1 108.347 33.067 A 3.834 3.834 0 0 1 107.715 33.254 A 5.201 5.201 0 0 1 106.696 33.036 Q 105.146 32.519 105.081 31.04 A 2.99 2.99 0 0 1 105.078 30.91 L 105.078 30.617 A 2.246 2.246 0 0 1 105.168 30.085 Q 105.485 28.876 106.931 25.801 A 124.412 124.412 0 0 1 107.617 24.367 L 107.617 24.172 A 2777.752 2777.752 0 0 1 106.336 21.169 Q 102.149 11.342 102.149 11.086 L 102.149 10.207 A 2.01 2.01 0 0 1 103.123 8.419 Q 103.496 8.178 104.011 8.014 A 5.905 5.905 0 0 1 104.59 7.863 A 2.765 2.765 0 0 1 105.491 8.001 Q 106.441 8.327 106.836 9.426 A 837.381 837.381 0 0 0 107.556 11.427 Q 109.921 17.98 110.156 18.215 Z M 68.652 0.978 L 68.75 0.978 Q 70.156 1.888 70.371 4.059 A 8.378 8.378 0 0 1 70.41 4.885 L 70.41 23.146 Q 70.41 24.856 69.834 25.919 A 3.062 3.062 0 0 1 68.457 27.248 Q 67.965 27.388 67.574 27.428 A 2.887 2.887 0 0 1 67.285 27.443 L 66.797 27.443 Q 65.952 27.443 65.081 26.702 A 6.051 6.051 0 0 1 64.453 26.076 Q 62.964 27.541 60.742 27.541 L 60.156 27.541 A 7.265 7.265 0 0 1 55.591 25.914 A 10.516 10.516 0 0 1 54.297 24.709 L 54.297 24.611 A 8.116 8.116 0 0 0 59.277 26.271 A 6.145 6.145 0 0 0 63.184 24.904 L 63.281 24.904 A 5.206 5.206 0 0 0 64.073 25.587 Q 64.592 25.944 65.127 26.084 A 2.736 2.736 0 0 0 65.82 26.174 Q 68.58 26.174 69.046 22.802 A 11.076 11.076 0 0 0 69.141 21.291 L 69.141 4.299 A 11.478 11.478 0 0 0 68.92 2.014 A 9.961 9.961 0 0 0 68.652 0.978 Z M 5.469 1.662 L 7.813 1.662 A 28.127 28.127 0 0 1 9.514 1.709 Q 12.904 1.916 13.281 3.029 A 4.965 4.965 0 0 1 13.43 3.399 Q 13.574 3.811 13.574 4.103 L 13.574 4.396 A 1.965 1.965 0 0 1 12.47 6.271 Q 11.649 6.702 10.217 6.737 A 10.55 10.55 0 0 1 9.961 6.74 L 5.664 6.74 Q 5.548 6.74 5.433 6.923 A 1.261 1.261 0 0 0 5.371 7.033 L 5.371 10.646 Q 5.371 10.762 5.554 10.878 A 1.261 1.261 0 0 0 5.664 10.939 L 9.375 10.939 A 7.615 7.615 0 0 1 10.649 11.036 Q 12.988 11.435 12.988 13.478 A 2.042 2.042 0 0 1 11.833 15.427 Q 10.967 15.88 9.451 15.916 A 11.251 11.251 0 0 1 9.18 15.92 L 5.664 15.92 Q 5.548 15.92 5.433 16.102 A 1.261 1.261 0 0 0 5.371 16.213 L 5.371 21.974 Q 5.371 25.588 2.735 25.588 L 2.637 25.588 A 2.684 2.684 0 0 1 1.392 25.317 Q 0.28 24.744 0.056 22.952 A 7.926 7.926 0 0 1 0 21.974 L 0 5.275 A 7.096 7.096 0 0 1 0.069 4.246 Q 0.247 3.036 0.886 2.46 A 1.873 1.873 0 0 1 1.172 2.248 A 1.91 1.91 0 0 1 1.7 2.007 Q 2.613 1.722 4.583 1.672 A 35.021 35.021 0 0 1 5.469 1.662 Z M 195.801 12.404 L 195.801 21.974 A 48.161 48.161 0 0 1 195.716 24.954 Q 195.384 30.28 193.75 31.545 A 8.728 8.728 0 0 1 187.348 34.831 A 12.176 12.176 0 0 1 186.426 34.865 L 185.352 34.865 A 14.601 14.601 0 0 1 182.747 34.649 Q 179.704 34.096 178.125 32.131 L 178.223 32.131 A 11.063 11.063 0 0 0 181.492 33.31 Q 182.832 33.578 184.365 33.594 A 18.816 18.816 0 0 0 184.57 33.595 A 13.43 13.43 0 0 0 188.052 33.177 Q 192.144 32.078 193.745 28.098 A 11.092 11.092 0 0 0 193.848 27.834 A 10.384 10.384 0 0 0 194.202 26.345 Q 194.332 25.565 194.389 24.65 A 24.209 24.209 0 0 0 194.434 23.146 L 194.434 10.646 Q 194.434 10.04 194.166 8.965 A 19.313 19.313 0 0 0 194.043 8.498 Q 195.558 9.381 195.767 11.642 A 8.26 8.26 0 0 1 195.801 12.404 Z M 68.457 2.931 L 68.457 22.072 Q 68.457 25.52 66.014 25.586 A 3.564 3.564 0 0 1 65.918 25.588 Q 64.613 25.588 63.668 24.224 A 5.588 5.588 0 0 1 63.477 23.927 L 63.184 23.927 A 4.967 4.967 0 0 1 59.789 25.651 A 7.001 7.001 0 0 1 59.082 25.685 A 6.907 6.907 0 0 1 53.783 23.231 Q 52.871 22.222 52.104 20.798 A 17.158 17.158 0 0 1 51.758 20.119 Q 51.074 18.166 51.074 16.213 A 9.774 9.774 0 0 1 51.912 12.098 Q 52.909 9.92 55.094 8.39 A 12.899 12.899 0 0 1 56.348 7.619 A 8.103 8.103 0 0 1 58.089 7.188 A 7.043 7.043 0 0 1 58.985 7.131 L 59.57 7.131 A 4.933 4.933 0 0 1 61.031 7.336 A 3.804 3.804 0 0 1 62.891 8.595 L 62.988 8.595 A 0.378 0.378 0 0 0 63.222 8.369 Q 63.255 8.293 63.269 8.192 A 1.269 1.269 0 0 0 63.281 8.01 L 63.281 3.517 A 6.63 6.63 0 0 1 63.394 2.234 Q 63.837 0.002 66.016 0.002 A 2.047 2.047 0 0 1 67.886 1.048 Q 68.131 1.455 68.284 2.021 A 6.686 6.686 0 0 1 68.457 2.931 Z M 94.531 0.099 L 94.727 0.099 Q 97.137 0.312 97.798 1.451 A 1.941 1.941 0 0 1 98.047 2.443 Q 98.144 2.443 98.145 2.825 A 3.044 3.044 0 0 1 98.145 2.834 A 1.733 1.733 0 0 1 97.28 4.405 Q 96.948 4.61 96.489 4.741 A 5.341 5.341 0 0 1 95.801 4.885 Q 94.907 4.885 94.686 5.592 A 1.54 1.54 0 0 0 94.629 5.861 L 94.629 7.814 A 0.338 0.338 0 0 0 94.648 7.893 Q 94.692 8.01 94.824 8.01 L 95.508 8.01 Q 97.02 8.01 97.869 8.711 A 2.678 2.678 0 0 1 98.633 9.767 L 98.633 10.451 A 1.772 1.772 0 0 1 97.555 12.143 Q 96.633 12.599 94.922 12.599 L 94.824 12.599 A 0.338 0.338 0 0 0 94.746 12.618 Q 94.629 12.662 94.629 12.795 L 94.629 20.119 Q 94.629 23.977 93.652 25.019 A 1.151 1.151 0 0 1 92.969 25.392 A 0.072 0.072 0 0 1 92.925 25.444 Q 92.784 25.529 92.193 25.635 A 15.577 15.577 0 0 1 91.895 25.685 A 2.684 2.684 0 0 1 90.65 25.415 Q 89.537 24.841 89.314 23.049 A 7.926 7.926 0 0 1 89.258 22.072 L 89.258 13.674 L 89.356 12.697 Q 87.214 12.47 86.495 11.596 A 1.598 1.598 0 0 1 86.133 10.549 L 86.133 10.06 A 1.615 1.615 0 0 1 86.884 8.697 Q 87.521 8.242 88.699 7.997 A 10.276 10.276 0 0 1 89.16 7.912 L 89.16 7.814 A 16.408 16.408 0 0 1 89.365 5.095 Q 90.209 0.099 94.531 0.099 Z M 138.086 1.76 L 138.77 1.76 A 1.913 1.913 0 0 1 140.418 2.641 Q 140.718 3.072 140.918 3.713 A 6.641 6.641 0 0 1 141.105 5.02 A 7.652 7.652 0 0 1 141.113 5.373 L 141.113 20.314 Q 141.113 20.43 141.296 20.546 A 1.261 1.261 0 0 0 141.406 20.607 L 145.801 20.607 A 8.446 8.446 0 0 1 147.062 20.693 Q 148.692 20.941 149.238 21.902 A 2.286 2.286 0 0 1 149.512 23.049 A 2.476 2.476 0 0 1 149.218 24.29 Q 148.65 25.291 146.985 25.52 A 8.001 8.001 0 0 1 145.899 25.588 L 138.867 25.588 A 4.823 4.823 0 0 1 137.659 25.45 Q 136.104 25.046 135.811 23.461 A 4.413 4.413 0 0 1 135.742 22.658 L 135.742 5.08 A 9.59 9.59 0 0 1 135.9 3.985 Q 136.14 2.843 136.639 2.314 A 1.397 1.397 0 0 1 137.695 1.857 Q 137.695 1.761 138.077 1.76 A 3.044 3.044 0 0 1 138.086 1.76 Z M 119.043 10.402 L 118.75 8.937 L 118.848 8.937 A 2.851 2.851 0 0 1 120.257 10.984 A 4.057 4.057 0 0 1 120.313 11.672 A 2.682 2.682 0 0 1 120.191 12.295 Q 119.748 13.876 117.699 18.714 A 329.716 329.716 0 0 1 116.699 21.047 Q 111.841 32.839 110.938 34.23 Q 110.01 35.109 109.18 35.109 L 108.692 35.109 Q 107.149 35.109 106.22 33.881 A 4.076 4.076 0 0 1 106.055 33.644 Q 106.132 33.644 106.148 33.583 A 0.144 0.144 0 0 0 106.152 33.547 A 4.689 4.689 0 0 0 107.812 33.84 Q 109.996 33.84 111.504 29.019 A 24.613 24.613 0 0 0 111.524 28.957 A 1972.358 1972.358 0 0 0 113.263 24.888 Q 118.945 11.553 118.945 10.89 A 1.663 1.663 0 0 1 118.955 10.711 Q 118.975 10.522 119.043 10.403 A 0.502 0.502 0 0 1 119.043 10.402 Z M 173.364 17.385 L 173.364 17.677 Q 173.364 24.416 167.114 27.052 Q 165.625 27.541 164.185 27.541 L 163.599 27.541 A 8.692 8.692 0 0 1 157.124 24.806 A 10.997 10.997 0 0 1 156.763 24.416 L 156.86 24.416 A 9.235 9.235 0 0 0 162.525 26.271 L 162.72 26.271 A 9.486 9.486 0 0 0 166.852 25.41 Q 170.241 23.793 171.802 19.142 A 16.865 16.865 0 0 0 172.081 16.761 A 14.984 14.984 0 0 0 172.095 16.115 Q 172.095 12.966 170.239 9.963 A 9.081 9.081 0 0 1 173.296 16.042 A 12.745 12.745 0 0 1 173.364 17.385 Z M 162.622 6.935 Q 168.945 6.935 171.118 13.478 A 11.27 11.27 0 0 1 171.286 14.309 Q 171.357 14.741 171.413 15.241 A 26.393 26.393 0 0 1 171.509 16.31 A 10.53 10.53 0 0 1 170.892 20.014 Q 169.853 22.798 167.065 24.457 A 12.229 12.229 0 0 1 166.04 25.002 A 9.019 9.019 0 0 1 162.622 25.685 A 8.786 8.786 0 0 1 158.544 24.771 Q 156.574 23.757 155.249 21.618 A 13.67 13.67 0 0 1 154.028 19.045 A 57.446 57.446 0 0 1 153.902 18.121 Q 153.743 16.879 153.736 16.27 A 4.785 4.785 0 0 1 153.735 16.213 Q 153.735 10.011 159.4 7.521 A 7.609 7.609 0 0 1 161.296 7.021 A 9.883 9.883 0 0 1 162.622 6.935 Z M 13.574 12.892 L 13.379 12.209 L 13.574 12.209 A 3.177 3.177 0 0 1 14.407 12.964 Q 14.917 13.64 14.94 14.559 A 3.505 3.505 0 0 1 14.942 14.65 Q 14.942 17.337 11.683 17.784 A 10.564 10.564 0 0 1 10.254 17.873 L 7.324 17.873 L 7.324 22.951 A 8.787 8.787 0 0 1 7.179 24.625 Q 6.611 27.541 3.809 27.541 A 3.19 3.19 0 0 1 2.636 27.334 Q 1.807 27.009 1.27 26.174 L 1.27 25.978 L 2.637 26.271 A 5.658 5.658 0 0 0 3.927 25.984 Q 5.636 25.364 5.834 23.62 A 4.216 4.216 0 0 0 5.86 23.146 A 0.107 0.107 0 0 0 5.926 23.054 Q 6.054 22.656 6.055 20.537 A 69.221 69.221 0 0 0 6.055 20.51 L 6.055 16.701 A 0.338 0.338 0 0 1 6.073 16.622 Q 6.118 16.506 6.25 16.506 L 9.57 16.506 A 7.207 7.207 0 0 0 10.974 16.38 Q 11.737 16.228 12.286 15.892 A 2.817 2.817 0 0 0 13.574 14.064 L 13.574 12.892 Z M 99.317 10.353 L 99.121 9.279 L 99.317 9.279 A 2.639 2.639 0 0 1 100.206 10.147 Q 100.586 10.768 100.586 11.623 Q 100.586 13.499 98.492 14.245 A 6.092 6.092 0 0 1 98.145 14.357 L 96.485 14.552 L 96.485 23.244 A 7.217 7.217 0 0 1 96.34 24.75 Q 95.867 26.961 93.848 27.541 L 92.676 27.541 Q 91.702 27.541 90.834 26.626 A 5.11 5.11 0 0 1 90.527 26.271 L 90.527 26.076 A 30.796 30.796 0 0 0 90.952 26.152 Q 91.514 26.249 91.784 26.267 A 1.654 1.654 0 0 0 91.895 26.271 A 3.194 3.194 0 0 0 93.537 25.871 Q 95.215 24.888 95.215 21.486 L 95.215 13.381 A 0.104 0.104 0 0 1 95.287 13.307 Q 95.538 13.18 96.664 13.052 A 34.05 34.05 0 0 1 97.266 12.99 Q 99.317 12.16 99.317 10.353 Z M 23.657 8.498 L 23.755 8.498 A 3.132 3.132 0 0 1 25.013 10.043 Q 25.246 10.617 25.344 11.349 A 8.699 8.699 0 0 1 25.415 12.502 L 25.415 23.146 A 7.879 7.879 0 0 1 25.276 24.693 Q 25.107 25.535 24.733 26.144 A 3.151 3.151 0 0 1 22.876 27.541 L 21.704 27.541 Q 20.508 27.541 19.556 26.271 L 19.458 26.076 L 19.556 26.076 A 30.796 30.796 0 0 0 19.98 26.152 Q 20.543 26.249 20.812 26.267 A 1.654 1.654 0 0 0 20.923 26.271 Q 23.411 26.271 23.979 23.453 A 7.384 7.384 0 0 0 24.048 23.049 Q 24.146 21.584 24.146 20.607 L 24.146 12.795 Q 24.146 9.865 23.657 8.498 Z M 79.346 8.498 L 79.443 8.498 A 3.132 3.132 0 0 1 80.701 10.043 Q 80.934 10.617 81.032 11.349 A 8.699 8.699 0 0 1 81.104 12.502 L 81.104 23.146 A 7.879 7.879 0 0 1 80.964 24.693 Q 80.795 25.535 80.421 26.144 A 3.151 3.151 0 0 1 78.565 27.541 L 77.393 27.541 Q 76.196 27.541 75.244 26.271 L 75.147 26.076 L 75.244 26.076 A 30.796 30.796 0 0 0 75.669 26.152 Q 76.231 26.249 76.501 26.267 A 1.654 1.654 0 0 0 76.611 26.271 Q 79.1 26.271 79.667 23.453 A 7.384 7.384 0 0 0 79.736 23.049 Q 79.834 21.584 79.834 20.607 L 79.834 12.795 Q 79.834 9.865 79.346 8.498 Z M 204.273 8.498 L 204.37 8.498 A 3.132 3.132 0 0 1 205.628 10.043 Q 205.861 10.617 205.959 11.349 A 8.699 8.699 0 0 1 206.03 12.502 L 206.03 23.146 A 7.879 7.879 0 0 1 205.891 24.693 Q 205.722 25.535 205.348 26.144 A 3.151 3.151 0 0 1 203.491 27.541 L 202.319 27.541 Q 201.123 27.541 200.171 26.271 L 200.073 26.076 L 200.171 26.076 A 30.796 30.796 0 0 0 200.595 26.152 Q 201.158 26.249 201.428 26.267 A 1.654 1.654 0 0 0 201.538 26.271 Q 204.027 26.271 204.594 23.453 A 7.384 7.384 0 0 0 204.663 23.049 Q 204.761 21.584 204.761 20.607 L 204.761 12.795 Q 204.761 9.865 204.273 8.498 Z M 45.972 9.572 L 45.972 9.474 L 46.069 9.474 Q 48.511 11.11 48.511 16.896 L 48.511 21.779 Q 48.511 26.192 46.886 27.175 A 1.892 1.892 0 0 1 46.753 27.248 A 7.641 7.641 0 0 1 46.232 27.402 Q 45.691 27.541 45.288 27.541 L 44.995 27.541 A 3.069 3.069 0 0 1 43.819 27.323 Q 43.122 27.037 42.627 26.374 A 3.617 3.617 0 0 1 42.554 26.271 L 42.554 26.076 A 30.796 30.796 0 0 0 42.978 26.152 Q 43.541 26.249 43.81 26.267 A 1.654 1.654 0 0 0 43.921 26.271 Q 47.144 26.271 47.144 22.17 L 47.144 13.967 A 9.369 9.369 0 0 0 46.903 11.794 A 7.163 7.163 0 0 0 45.972 9.572 Z M 226.587 9.572 L 226.587 9.474 L 226.685 9.474 Q 229.126 11.11 229.126 16.896 L 229.126 21.779 Q 229.126 26.192 227.501 27.175 A 1.892 1.892 0 0 1 227.368 27.248 A 7.641 7.641 0 0 1 226.848 27.402 Q 226.306 27.541 225.903 27.541 L 225.61 27.541 A 3.069 3.069 0 0 1 224.434 27.323 Q 223.737 27.037 223.243 26.374 A 3.617 3.617 0 0 1 223.169 26.271 L 223.169 26.076 A 30.796 30.796 0 0 0 223.593 26.152 Q 224.156 26.249 224.426 26.267 A 1.654 1.654 0 0 0 224.536 26.271 Q 227.759 26.271 227.759 22.17 L 227.759 13.967 A 9.369 9.369 0 0 0 227.518 11.794 A 7.163 7.163 0 0 0 226.587 9.572 Z M 20.728 7.521 L 21.021 7.521 Q 23.051 7.521 23.393 10.021 A 8.257 8.257 0 0 1 23.462 11.135 L 23.462 22.072 A 7.615 7.615 0 0 1 23.365 23.346 Q 22.966 25.685 20.923 25.685 Q 19.562 25.685 18.858 24.57 A 3.544 3.544 0 0 1 18.579 24.025 Q 18.261 23.369 18.202 21.19 A 39.728 39.728 0 0 1 18.189 20.119 L 18.189 12.99 A 22.888 22.888 0 0 1 18.243 11.333 Q 18.429 8.786 19.246 8.033 A 1.14 1.14 0 0 1 20.044 7.717 A 0.103 0.103 0 0 1 20.099 7.631 Q 20.238 7.539 20.728 7.521 Z M 76.416 7.521 L 76.709 7.521 Q 78.74 7.521 79.081 10.021 A 8.257 8.257 0 0 1 79.151 11.135 L 79.151 22.072 A 7.615 7.615 0 0 1 79.054 23.346 Q 78.655 25.685 76.611 25.685 Q 75.251 25.685 74.546 24.57 A 3.544 3.544 0 0 1 74.268 24.025 Q 73.95 23.369 73.891 21.19 A 39.728 39.728 0 0 1 73.877 20.119 L 73.877 12.99 A 22.888 22.888 0 0 1 73.932 11.333 Q 74.118 8.786 74.935 8.033 A 1.14 1.14 0 0 1 75.733 7.717 A 0.103 0.103 0 0 1 75.787 7.631 Q 75.926 7.539 76.416 7.521 Z M 201.343 7.521 L 201.636 7.521 Q 203.666 7.521 204.008 10.021 A 8.257 8.257 0 0 1 204.077 11.135 L 204.077 22.072 A 7.615 7.615 0 0 1 203.98 23.346 Q 203.581 25.685 201.538 25.685 Q 200.178 25.685 199.473 24.57 A 3.544 3.544 0 0 1 199.194 24.025 Q 198.876 23.369 198.817 21.19 A 39.728 39.728 0 0 1 198.804 20.119 L 198.804 12.99 A 22.888 22.888 0 0 1 198.859 11.333 Q 199.045 8.786 199.862 8.033 A 1.14 1.14 0 0 1 200.659 7.717 A 0.103 0.103 0 0 1 200.714 7.631 Q 200.853 7.539 201.343 7.521 Z M 40.308 13.771 L 40.308 13.869 L 39.429 13.869 Q 37.671 13.869 37.671 16.506 L 37.671 21.779 Q 37.671 26.192 36.046 27.175 A 1.892 1.892 0 0 1 35.913 27.248 A 7.641 7.641 0 0 1 35.393 27.402 Q 34.851 27.541 34.448 27.541 L 34.155 27.541 A 3.069 3.069 0 0 1 32.979 27.323 Q 32.282 27.037 31.788 26.374 A 3.617 3.617 0 0 1 31.714 26.271 L 31.714 26.076 A 30.796 30.796 0 0 0 32.138 26.152 Q 32.701 26.249 32.971 26.267 A 1.654 1.654 0 0 0 33.081 26.271 Q 36.304 26.271 36.304 22.17 L 36.304 16.603 A 23.907 23.907 0 0 1 36.347 15.534 Q 36.518 12.892 37.28 12.892 Q 37.354 12.648 38.55 12.502 A 4.805 4.805 0 0 1 39.186 12.639 Q 40.308 12.972 40.308 13.771 Z M 220.923 13.771 L 220.923 13.869 L 220.044 13.869 Q 218.286 13.869 218.286 16.506 L 218.286 21.779 Q 218.286 26.192 216.661 27.175 A 1.892 1.892 0 0 1 216.528 27.248 A 7.641 7.641 0 0 1 216.008 27.402 Q 215.466 27.541 215.064 27.541 L 214.771 27.541 A 3.069 3.069 0 0 1 213.594 27.323 Q 212.897 27.037 212.403 26.374 A 3.617 3.617 0 0 1 212.329 26.271 L 212.329 26.076 A 30.796 30.796 0 0 0 212.753 26.152 Q 213.316 26.249 213.586 26.267 A 1.654 1.654 0 0 0 213.696 26.271 Q 216.919 26.271 216.919 22.17 L 216.919 16.603 A 23.907 23.907 0 0 1 216.962 15.534 Q 217.133 12.892 217.896 12.892 Q 217.969 12.648 219.165 12.502 A 4.805 4.805 0 0 1 219.801 12.639 Q 220.923 12.972 220.923 13.771 Z M 149.902 21.877 L 150.098 21.877 Q 151.367 22.853 151.367 24.025 L 151.367 24.709 A 2.304 2.304 0 0 1 150.047 26.836 Q 149.099 27.358 147.469 27.53 A 13.069 13.069 0 0 1 147.363 27.541 L 140.625 27.541 A 9.115 9.115 0 0 1 139.364 27.46 Q 137.489 27.197 136.817 26.076 L 136.817 25.881 L 136.914 25.881 A 6.559 6.559 0 0 0 137.703 26.086 Q 138.125 26.167 138.509 26.173 A 3.959 3.959 0 0 0 138.574 26.174 L 146.387 26.174 A 6.216 6.216 0 0 0 147.787 26.03 Q 149.707 25.585 150.032 23.754 A 4.6 4.6 0 0 0 150.098 22.951 A 0.814 0.814 0 0 0 150.091 22.861 Q 150.067 22.656 149.955 22.125 A 39.29 39.29 0 0 0 149.902 21.877 Z M 141.309 2.736 L 141.406 2.736 Q 143.067 3.786 143.067 6.74 L 143.067 19.826 A 0.281 0.281 0 0 1 143.057 19.903 Q 143.032 19.99 142.944 20.013 A 0.288 0.288 0 0 1 142.871 20.021 L 141.992 20.021 A 0.281 0.281 0 0 1 141.915 20.012 Q 141.828 19.987 141.805 19.898 A 0.288 0.288 0 0 1 141.797 19.826 L 141.797 7.033 Q 141.797 4.103 141.309 2.736 Z M 13.965 3.029 L 14.16 2.931 A 4.172 4.172 0 0 1 14.932 3.707 A 2.877 2.877 0 0 1 15.527 5.47 A 3.141 3.141 0 0 1 15.154 7.046 Q 14.433 8.316 12.317 8.607 A 10.172 10.172 0 0 1 10.938 8.693 L 7.324 8.693 L 7.324 10.06 A 0.281 0.281 0 0 1 7.315 10.138 Q 7.29 10.224 7.201 10.247 A 0.288 0.288 0 0 1 7.129 10.256 L 6.25 10.256 A 0.281 0.281 0 0 1 6.173 10.246 Q 6.086 10.221 6.063 10.133 A 0.288 0.288 0 0 1 6.055 10.06 L 6.055 7.521 A 0.338 0.338 0 0 1 6.073 7.443 Q 6.118 7.326 6.25 7.326 L 10.254 7.326 Q 13.574 7.326 14.16 4.885 L 14.16 3.81 A 1.636 1.636 0 0 0 13.965 3.029 Z M 159.204 16.213 L 159.204 16.31 Q 159.204 19.808 161.929 20.537 A 4.982 4.982 0 0 0 162.232 20.607 L 163.013 20.607 A 2.378 2.378 0 0 0 165.009 19.529 Q 165.638 18.664 165.994 17.107 A 12.595 12.595 0 0 0 166.04 16.896 L 166.04 16.115 Q 166.04 12.961 163.57 12.079 A 5.12 5.12 0 0 0 163.013 11.916 L 162.232 11.916 Q 159.323 12.479 159.209 15.926 A 8.657 8.657 0 0 0 159.204 16.213 Z M 56.543 15.822 L 56.543 16.701 A 5.139 5.139 0 0 0 56.752 18.213 A 3.671 3.671 0 0 0 58.789 20.51 A 1.636 1.636 0 0 0 59.57 20.705 L 60.254 20.705 A 2.431 2.431 0 0 0 62.252 19.669 Q 62.584 19.238 62.847 18.629 A 8.146 8.146 0 0 0 63.184 17.677 A 2.658 2.658 0 0 0 63.25 17.332 Q 63.281 17.089 63.281 16.799 L 63.281 16.017 A 5.205 5.205 0 0 0 63.069 14.479 Q 62.577 12.885 60.946 12.157 A 5.181 5.181 0 0 0 60.84 12.111 A 0.743 0.743 0 0 0 60.543 12.018 A 0.922 0.922 0 0 0 60.449 12.013 L 59.57 12.013 A 2.455 2.455 0 0 0 57.392 13.286 Q 57.083 13.78 56.863 14.465 A 9.613 9.613 0 0 0 56.543 15.822 Z M 182.031 16.31 L 182.031 16.701 A 5.892 5.892 0 0 0 182.221 18.246 A 3.81 3.81 0 0 0 184.18 20.705 A 1.636 1.636 0 0 0 184.961 20.9 L 185.84 20.9 Q 188.843 20.198 188.867 16.66 A 8.429 8.429 0 0 0 188.867 16.603 Q 188.675 14.721 187.995 13.663 A 2.839 2.839 0 0 0 185.449 12.306 Q 182.471 12.306 182.031 16.31 Z M 24.048 1.271 L 24.146 1.271 A 5.145 5.145 0 0 1 25.056 2.168 A 3.397 3.397 0 0 1 25.806 4.299 L 25.806 4.494 A 3.365 3.365 0 0 1 25.284 6.369 Q 24.872 7.005 24.132 7.471 A 5.734 5.734 0 0 1 23.267 7.912 L 23.169 7.912 A 3.153 3.153 0 0 0 22.593 7.361 A 2.133 2.133 0 0 0 21.314 6.935 L 20.435 6.935 Q 20.208 6.935 19.647 7.103 A 11.43 11.43 0 0 0 19.556 7.131 A 15.625 15.625 0 0 1 19.441 6.992 Q 19.146 6.629 19.084 6.499 A 0.136 0.136 0 0 1 19.068 6.447 L 19.165 6.447 A 14.569 14.569 0 0 0 19.522 6.561 Q 20.009 6.71 20.25 6.735 A 0.851 0.851 0 0 0 20.337 6.74 L 21.411 6.74 A 2.595 2.595 0 0 0 23.46 5.748 Q 23.808 5.339 24.094 4.761 A 7.285 7.285 0 0 0 24.341 4.201 A 0.38 0.38 0 0 0 24.38 4.11 Q 24.453 3.886 24.525 3.233 A 19.76 19.76 0 0 0 24.536 3.127 A 2.749 2.749 0 0 0 24.489 2.641 Q 24.384 2.06 24.048 1.271 Z M 79.736 1.271 L 79.834 1.271 A 5.145 5.145 0 0 1 80.745 2.168 A 3.397 3.397 0 0 1 81.494 4.299 L 81.494 4.494 A 3.365 3.365 0 0 1 80.973 6.369 Q 80.56 7.005 79.82 7.471 A 5.734 5.734 0 0 1 78.955 7.912 L 78.858 7.912 A 3.153 3.153 0 0 0 78.282 7.361 A 2.133 2.133 0 0 0 77.002 6.935 L 76.123 6.935 Q 75.897 6.935 75.335 7.103 A 11.43 11.43 0 0 0 75.244 7.131 A 15.625 15.625 0 0 1 75.13 6.992 Q 74.834 6.629 74.772 6.499 A 0.136 0.136 0 0 1 74.756 6.447 L 74.854 6.447 A 14.569 14.569 0 0 0 75.21 6.561 Q 75.698 6.71 75.938 6.735 A 0.851 0.851 0 0 0 76.026 6.74 L 77.1 6.74 A 2.595 2.595 0 0 0 79.148 5.748 Q 79.496 5.339 79.782 4.761 A 7.285 7.285 0 0 0 80.029 4.201 A 0.38 0.38 0 0 0 80.069 4.11 Q 80.141 3.886 80.213 3.233 A 19.76 19.76 0 0 0 80.225 3.127 A 2.749 2.749 0 0 0 80.177 2.641 Q 80.072 2.06 79.736 1.271 Z M 204.663 1.271 L 204.761 1.271 A 5.145 5.145 0 0 1 205.672 2.168 A 3.397 3.397 0 0 1 206.421 4.299 L 206.421 4.494 A 3.365 3.365 0 0 1 205.9 6.369 Q 205.487 7.005 204.747 7.471 A 5.734 5.734 0 0 1 203.882 7.912 L 203.784 7.912 A 3.153 3.153 0 0 0 203.209 7.361 A 2.133 2.133 0 0 0 201.929 6.935 L 201.05 6.935 Q 200.824 6.935 200.262 7.103 A 11.43 11.43 0 0 0 200.171 7.131 A 15.625 15.625 0 0 1 200.057 6.992 Q 199.761 6.629 199.699 6.499 A 0.136 0.136 0 0 1 199.683 6.447 L 199.78 6.447 A 14.569 14.569 0 0 0 200.137 6.561 Q 200.625 6.71 200.865 6.735 A 0.851 0.851 0 0 0 200.952 6.74 L 202.026 6.74 A 2.595 2.595 0 0 0 204.075 5.748 Q 204.423 5.339 204.709 4.761 A 7.285 7.285 0 0 0 204.956 4.201 A 0.38 0.38 0 0 0 204.995 4.11 Q 205.068 3.886 205.14 3.233 A 19.76 19.76 0 0 0 205.151 3.127 A 2.749 2.749 0 0 0 205.104 2.641 Q 204.999 2.06 204.663 1.271 Z M 162.525 12.502 L 162.72 12.502 A 1.965 1.965 0 0 1 163.754 12.809 Q 164.275 13.127 164.771 13.771 L 164.771 13.967 L 163.892 13.771 A 2.302 2.302 0 0 0 161.79 14.937 Q 161.515 15.393 161.344 16.027 A 7.323 7.323 0 0 0 161.157 16.994 L 161.157 17.775 Q 161.157 18.752 161.548 19.631 L 161.353 19.728 A 4.1 4.1 0 0 1 159.806 16.738 A 5.561 5.561 0 0 1 159.79 16.31 A 5.787 5.787 0 0 1 159.936 14.961 A 3.293 3.293 0 0 1 161.646 12.697 A 9.679 9.679 0 0 1 161.922 12.616 Q 162.338 12.502 162.525 12.502 Z M 59.766 12.599 L 60.059 12.599 A 2.024 2.024 0 0 1 61.413 13.127 Q 61.786 13.449 62.11 13.967 Q 62.032 13.967 62.016 14.028 A 0.144 0.144 0 0 0 62.012 14.064 A 0.794 0.794 0 0 0 61.903 14.021 Q 61.707 13.958 61.304 13.895 A 11.983 11.983 0 0 0 61.133 13.869 A 2.193 2.193 0 0 0 59.117 15.024 Q 58.646 15.827 58.496 17.189 L 58.496 17.97 Q 58.496 19.045 58.887 19.728 L 58.692 19.826 Q 57.129 18.654 57.129 16.31 A 5.698 5.698 0 0 1 57.279 14.947 Q 57.724 13.142 59.496 12.663 A 4.389 4.389 0 0 1 59.766 12.599 Z M 184.766 12.99 L 185.645 12.99 A 1.945 1.945 0 0 1 186.905 13.461 Q 187.181 13.688 187.433 14.024 A 4.488 4.488 0 0 1 187.598 14.26 L 187.598 14.357 Q 186.914 14.277 186.495 14.263 A 4.952 4.952 0 0 0 186.328 14.26 A 1.76 1.76 0 0 0 184.943 14.946 Q 184.344 15.653 183.985 17.092 L 183.985 18.166 A 4.578 4.578 0 0 0 184.169 19.431 A 5.678 5.678 0 0 0 184.375 20.021 L 184.277 20.021 A 3.501 3.501 0 0 1 182.669 17.454 A 5.32 5.32 0 0 1 182.617 16.701 A 5.368 5.368 0 0 1 182.787 15.302 A 3.408 3.408 0 0 1 184.766 12.99 Z M 179.688 24.904 L 179.785 24.904 A 7.04 7.04 0 0 0 183.985 26.271 L 184.277 26.271 A 6.723 6.723 0 0 0 186.175 26.014 A 5.532 5.532 0 0 0 187.988 25.099 L 188.086 25.099 L 188.086 25.197 A 1.889 1.889 0 0 1 187.415 26.633 Q 186.832 27.166 185.742 27.541 L 185.059 27.541 A 6.632 6.632 0 0 1 180.417 25.664 A 9.375 9.375 0 0 1 179.688 24.904 Z M 20.142 0.197 L 20.728 0.099 L 21.021 0.099 A 2.551 2.551 0 0 1 23.114 1.17 Q 23.433 1.579 23.689 2.146 A 6.976 6.976 0 0 1 23.853 2.541 L 23.853 3.517 Q 23.853 5.049 22.049 5.874 A 6.36 6.36 0 0 1 21.607 6.056 A 0.262 0.262 0 0 1 21.527 6.096 Q 21.355 6.154 20.923 6.154 L 20.825 6.154 A 5.422 5.422 0 0 1 19.653 5.865 Q 18.041 5.249 17.908 3.624 A 3.688 3.688 0 0 1 17.896 3.322 L 17.896 3.029 A 2.647 2.647 0 0 1 19.006 0.803 Q 19.431 0.484 20.018 0.245 A 6.067 6.067 0 0 1 20.142 0.197 Z M 75.83 0.197 L 76.416 0.099 L 76.709 0.099 A 2.551 2.551 0 0 1 78.803 1.17 Q 79.121 1.579 79.377 2.146 A 6.976 6.976 0 0 1 79.541 2.541 L 79.541 3.517 Q 79.541 5.049 77.737 5.874 A 6.36 6.36 0 0 1 77.295 6.056 A 0.262 0.262 0 0 1 77.215 6.096 Q 77.044 6.154 76.611 6.154 L 76.514 6.154 A 5.422 5.422 0 0 1 75.341 5.865 Q 73.73 5.249 73.596 3.624 A 3.688 3.688 0 0 1 73.584 3.322 L 73.584 3.029 A 2.647 2.647 0 0 1 74.695 0.803 Q 75.119 0.484 75.707 0.245 A 6.067 6.067 0 0 1 75.83 0.197 Z M 200.757 0.197 L 201.343 0.099 L 201.636 0.099 A 2.551 2.551 0 0 1 203.729 1.17 Q 204.048 1.579 204.304 2.146 A 6.976 6.976 0 0 1 204.468 2.541 L 204.468 3.517 Q 204.468 5.049 202.664 5.874 A 6.36 6.36 0 0 1 202.222 6.056 A 0.262 0.262 0 0 1 202.142 6.096 Q 201.97 6.154 201.538 6.154 L 201.441 6.154 A 5.422 5.422 0 0 1 200.268 5.865 Q 198.657 5.249 198.523 3.624 A 3.688 3.688 0 0 1 198.511 3.322 L 198.511 3.029 A 2.647 2.647 0 0 1 199.621 0.803 Q 200.046 0.484 200.634 0.245 A 6.067 6.067 0 0 1 200.757 0.197 Z M 98.535 1.369 L 98.633 1.369 A 4.912 4.912 0 0 1 99.294 1.971 Q 99.624 2.337 99.799 2.72 A 2.123 2.123 0 0 1 100 3.615 L 100 4.396 Q 100 6.236 96.994 6.89 A 11.033 11.033 0 0 1 96.777 6.935 Q 96.655 6.935 96.387 7.424 L 95.508 7.424 Q 95.392 7.424 95.277 7.241 A 1.261 1.261 0 0 1 95.215 7.131 L 95.215 5.959 A 0.217 0.217 0 0 1 95.317 5.802 Q 95.672 5.519 97.266 5.177 A 2.886 2.886 0 0 0 98.096 4.574 Q 98.646 3.985 98.719 3.109 A 3.307 3.307 0 0 0 98.731 2.834 L 98.731 2.443 A 0.645 0.645 0 0 0 98.724 2.369 Q 98.7 2.186 98.589 1.634 A 62.822 62.822 0 0 0 98.535 1.369 Z M 107.324 8.84 L 107.422 8.84 A 0.736 0.736 0 0 1 107.923 9.152 Q 108.814 10.169 110.21 14.486 A 90.255 90.255 0 0 1 110.645 15.871 A 0.152 0.152 0 0 1 110.64 15.897 Q 110.613 16.015 110.422 16.625 A 106.569 106.569 0 0 1 110.352 16.847 L 110.156 16.847 A 1.085 1.085 0 0 0 110.112 16.685 Q 109.848 15.844 108.014 10.75 A 1959.026 1959.026 0 0 0 107.324 8.84 Z M 87.012 12.892 L 87.207 12.892 A 16.137 16.137 0 0 1 87.601 12.981 Q 88.389 13.171 88.539 13.315 A 0.094 0.094 0 0 1 88.574 13.381 L 88.574 13.967 A 0.281 0.281 0 0 1 88.565 14.044 Q 88.54 14.131 88.451 14.154 A 0.288 0.288 0 0 1 88.379 14.162 A 3.151 3.151 0 0 1 87.387 13.422 A 2.996 2.996 0 0 1 87.012 12.892 Z" vector-effect="non-scaling-stroke"/></g></svg>