 <!-- <svg
            width="181pt"
            height="35pt"
            viewBox="0 0 181 35"
            xmlns="http://www.w3.org/2000/svg"
          >
            <g
              id="fontsvg1712787075525"
              stroke-linecap="round"
              fill-rule="evenodd"
              fill="#C777F1"
            >
              <path
                d="M 62.061 1.563 L 66.992 0.171 Q 69.702 0.391 71.24 2.979 L 70.874 5.444 L 71.24 6.519 L 70.874 27.661 L 71.24 30.835 L 69.482 32.593 L 65.576 32.935 L 64.185 32.593 A 6.796 6.796 0 0 1 60.705 30.9 A 8.991 8.991 0 0 1 59.937 30.127 L 53.247 16.724 A 7.543 7.543 0 0 0 51.856 15.011 A 10.341 10.341 0 0 0 50.439 13.916 L 52.197 18.481 L 53.247 30.127 A 5.462 5.462 0 0 1 50.347 33.054 A 7.539 7.539 0 0 1 49.731 33.301 L 46.924 33.643 L 45.85 33.301 L 44.434 32.593 L 43.384 30.127 Q 43.628 28.931 43.726 27.319 L 43.384 20.605 L 43.726 17.773 L 43.384 17.09 L 43.384 8.276 A 35.543 35.543 0 0 0 43.039 5.028 A 42.57 42.57 0 0 0 42.676 2.979 A 6.107 6.107 0 0 1 46.062 0.744 A 8.582 8.582 0 0 1 47.266 0.513 L 53.247 0.879 L 60.303 13.916 A 6.022 6.022 0 0 0 62.428 16.762 A 8.275 8.275 0 0 0 63.477 17.432 L 62.061 13.208 L 61.011 3.687 A 5.482 5.482 0 0 1 61.458 2.531 A 7.508 7.508 0 0 1 62.061 1.563 Z M 127.49 0.146 L 131.738 1.221 L 135.962 0.513 L 140.21 1.563 L 144.458 0.854 Q 146.509 0.977 148.682 1.904 L 149.39 6.494 A 9.38 9.38 0 0 1 147.561 8.765 A 11.191 11.191 0 0 1 146.899 9.326 L 143.042 9.692 L 138.086 9.326 L 135.278 8.643 L 134.204 8.984 L 133.496 11.792 L 133.838 12.866 L 137.036 13.232 L 138.086 12.866 L 143.042 12.866 A 11.841 11.841 0 0 1 146.26 13.368 A 13.706 13.706 0 0 1 146.899 13.574 L 147.632 16.748 L 147.29 17.822 A 10.811 10.811 0 0 1 146.688 20.229 A 13.173 13.173 0 0 1 146.216 21.338 L 142.676 21.704 L 141.626 21.338 L 138.086 20.63 L 137.036 20.996 L 134.204 20.63 L 133.496 28.394 L 133.838 29.468 A 7.892 7.892 0 0 1 133.164 32.223 A 9.551 9.551 0 0 1 132.788 32.983 L 125.708 33.691 L 125.024 32.642 A 13.054 13.054 0 0 1 123.956 30.104 A 15.963 15.963 0 0 1 123.608 28.76 L 124.658 24.878 L 123.95 21.704 L 124.316 20.63 L 123.95 15.674 L 124.316 11.084 L 123.608 3.32 L 124.316 2.271 A 23.96 23.96 0 0 1 125.793 1.202 A 31.576 31.576 0 0 1 127.49 0.146 Z M 0.708 3.101 L 3.125 0.659 L 9.741 1.709 L 10.449 1.367 L 11.475 1.367 L 11.475 1.025 L 16.016 1.709 L 20.532 1.367 L 24.365 2.051 Q 24.821 3.737 25.022 5.914 A 32.653 32.653 0 0 1 25.049 6.226 A 9.626 9.626 0 0 1 23.315 9.717 L 18.799 10.059 L 13.916 9.717 L 11.133 9.033 L 10.107 9.375 L 9.399 10.4 L 9.741 13.208 L 10.791 13.55 L 17.749 12.842 L 22.607 13.208 L 23.682 17.383 L 22.607 21.216 L 18.115 21.924 L 11.133 20.85 A 1.674 1.674 0 0 0 10.583 21.068 A 1.48 1.48 0 0 0 10.107 21.558 L 9.741 22.607 A 9.542 9.542 0 0 1 9.968 23.717 Q 10.052 24.292 10.088 24.946 A 17.43 17.43 0 0 1 10.107 25.391 L 10.449 28.516 L 10.107 29.565 L 10.449 32.373 L 9.033 33.057 L 5.225 33.398 Q 3.608 33.286 1.724 32.514 A 16.823 16.823 0 0 1 1.392 32.373 A 8.631 8.631 0 0 1 0.292 30.216 A 10.576 10.576 0 0 1 0 29.224 L 0.708 24.683 L 0.342 20.166 L 0.708 16.333 L 0.342 11.475 L 0.708 8.325 L 0.342 7.275 L 0 4.15 L 0.708 3.101 Z M 150.928 0.464 L 153.418 0.806 L 154.126 0.464 L 155.2 0.464 L 159.497 1.172 L 163.403 7.227 L 164.844 10.815 A 4.78 4.78 0 0 0 166.137 9.699 A 6.137 6.137 0 0 0 166.626 9.009 L 168.384 5.811 A 13.765 13.765 0 0 1 169.911 2.999 A 15.568 15.568 0 0 1 170.19 2.612 A 12.702 12.702 0 0 1 173.755 1.172 L 177.686 1.538 A 9.061 9.061 0 0 1 180.139 2.247 A 10.805 10.805 0 0 1 180.884 2.612 Q 180.624 4.055 179.859 5.704 A 18.024 18.024 0 0 1 179.81 5.811 L 177.319 8.301 L 173.047 13.672 L 171.265 16.87 A 17.843 17.843 0 0 0 170.212 18.575 A 22.974 22.974 0 0 0 169.458 20.093 L 170.19 24.023 L 169.849 27.222 L 170.19 28.296 L 170.532 31.152 L 169.849 32.227 L 166.26 33.643 L 161.987 32.91 A 15.234 15.234 0 0 1 160.618 31.255 A 19.016 19.016 0 0 1 159.839 30.078 L 160.547 25.781 L 159.839 21.509 L 160.547 20.435 L 159.839 18.286 L 154.126 9.375 L 151.636 6.885 L 149.487 4.028 Q 149.927 2.344 150.928 0.464 Z M 77.563 0 L 93.506 0.342 L 99.316 2.881 L 103.296 7.227 A 17.227 17.227 0 0 1 104.57 10.82 A 23.325 23.325 0 0 1 105.103 14.111 L 104.736 15.918 L 105.469 17.383 L 104.736 20.63 A 31.976 31.976 0 0 1 103.736 23.917 A 42.004 42.004 0 0 1 102.563 26.807 A 11.161 11.161 0 0 1 98.729 30.498 A 13.31 13.31 0 0 1 98.218 30.786 A 23.791 23.791 0 0 1 94.542 32.227 A 30.307 30.307 0 0 1 91.699 32.935 L 85.889 33.301 L 83.374 34.033 L 79.37 33.691 L 78.296 33.301 A 7.548 7.548 0 0 1 76.196 28.834 A 10.056 10.056 0 0 1 76.123 27.881 L 76.489 22.803 L 76.489 21.729 L 75.757 19.531 L 76.123 16.309 L 75.757 13.379 L 76.123 9.766 L 75.757 5.762 Q 76.025 2.93 77.563 0 Z M 29.712 1.709 L 34.253 0.293 L 38.818 2.051 L 38.452 6.958 L 38.11 8.008 L 38.818 10.815 L 38.452 11.865 L 38.452 16.406 L 38.818 16.406 L 38.452 16.748 L 38.11 19.922 L 38.452 20.947 L 38.452 22.363 L 38.818 25.146 L 38.452 25.854 L 38.452 26.904 L 38.818 30.762 L 38.452 32.153 A 16.368 16.368 0 0 1 36.042 33.05 A 21.397 21.397 0 0 1 33.911 33.545 A 21.704 21.704 0 0 1 29.354 31.816 A 24.72 24.72 0 0 1 29.346 31.812 L 29.346 27.954 L 29.004 27.954 L 29.346 26.563 L 29.712 22.363 L 29.346 17.456 L 29.712 12.207 Q 29.369 9.9 29.347 7.016 A 52.258 52.258 0 0 1 29.346 6.616 L 29.004 2.759 L 29.712 1.709 Z M 110.498 1.709 L 115.039 0.293 L 119.604 2.051 L 119.238 6.958 L 118.896 8.008 L 119.604 10.815 L 119.238 11.865 L 119.238 16.406 L 119.604 16.406 L 119.238 16.748 L 118.896 19.922 L 119.238 20.947 L 119.238 22.363 L 119.604 25.146 L 119.238 25.854 L 119.238 26.904 L 119.604 30.762 L 119.238 32.153 A 16.368 16.368 0 0 1 116.828 33.05 A 21.397 21.397 0 0 1 114.697 33.545 A 21.704 21.704 0 0 1 110.141 31.816 A 24.72 24.72 0 0 1 110.132 31.812 L 110.132 27.954 L 109.79 27.954 L 110.132 26.563 L 110.498 22.363 L 110.132 17.456 L 110.498 12.207 Q 110.155 9.9 110.133 7.016 A 52.258 52.258 0 0 1 110.132 6.616 L 109.79 2.759 L 110.498 1.709 Z M 91.333 9.766 L 85.889 8.691 L 85.889 24.609 L 88.086 24.268 L 91.699 24.268 L 93.506 22.803 A 18.286 18.286 0 0 0 94.945 19.904 A 21.438 21.438 0 0 0 95.337 18.823 L 94.946 13.037 A 13.692 13.692 0 0 0 92.058 10.258 A 15.96 15.96 0 0 0 91.333 9.766 Z M 66.992 23.438 L 65.942 22.729 L 65.576 25.879 L 64.893 28.027 A 0.632 0.632 0 0 0 65.188 28.535 Q 65.294 28.608 65.438 28.664 A 1.804 1.804 0 0 0 65.576 28.711 A 6.014 6.014 0 0 0 66.116 27.159 Q 66.261 26.466 66.282 25.672 A 10.178 10.178 0 0 0 66.284 25.537 L 66.992 23.438 Z M 164.478 22.583 L 163.037 24.365 L 165.918 26.855 L 165.552 25.098 L 165.918 24.707 A 4.981 4.981 0 0 0 164.783 22.879 A 6.01 6.01 0 0 0 164.478 22.583 Z M 81.567 12.305 L 82.275 10.498 A 4.37 4.37 0 0 0 81.972 9.304 A 2.996 2.996 0 0 0 80.103 7.593 A 16.984 16.984 0 0 0 81.242 11.572 A 19.394 19.394 0 0 0 81.567 12.305 Z M 163.77 15.43 L 164.111 17.944 L 163.403 19.019 L 165.552 19.019 A 8.57 8.57 0 0 0 163.77 15.43 Z M 131.738 17.114 L 130.322 13.916 L 128.906 17.114 L 129.614 17.456 L 131.738 17.114 Z M 49.365 9.326 L 47.607 6.519 L 46.924 8.984 L 46.924 10.034 L 49.365 9.326 Z M 63.135 26.245 L 62.427 23.071 L 61.011 24.487 A 10.791 10.791 0 0 1 62.212 25.38 A 13.862 13.862 0 0 1 63.135 26.245 Z M 4.541 8.325 A 3.945 3.945 0 0 0 5.517 9.577 Q 6.267 10.202 7.332 10.362 A 4.826 4.826 0 0 0 7.666 10.4 A 3.757 3.757 0 0 0 5.297 8.493 A 5.65 5.65 0 0 0 4.541 8.325 Z M 129.956 26.636 L 128.906 25.928 L 128.198 27.686 L 128.54 28.394 L 129.248 28.052 L 129.248 28.76 L 129.956 26.636 Z M 80.469 27.148 A 2.969 2.969 0 0 0 81.117 28.367 Q 81.622 28.922 82.436 29.16 A 4.521 4.521 0 0 0 83.374 29.321 A 19.307 19.307 0 0 0 81.842 28.081 A 24.501 24.501 0 0 0 80.469 27.148 Z M 33.545 25.854 L 33.203 27.954 L 33.545 28.662 L 34.253 29.37 A 9.67 9.67 0 0 0 33.951 27.152 A 12.228 12.228 0 0 0 33.545 25.854 Z M 114.331 25.854 L 113.989 27.954 L 114.331 28.662 L 115.039 29.37 A 9.67 9.67 0 0 0 114.737 27.152 A 12.228 12.228 0 0 0 114.331 25.854 Z M 80.469 22.461 L 79.736 24.609 L 81.567 25.342 A 5.51 5.51 0 0 0 80.805 22.979 A 6.809 6.809 0 0 0 80.469 22.461 Z M 98.584 22.461 L 97.119 24.609 A 1.719 1.719 0 0 0 97.284 25.128 A 1.382 1.382 0 0 0 97.852 25.708 A 6.518 6.518 0 0 0 98.512 23.565 A 8.275 8.275 0 0 0 98.584 22.461 Z M 82.275 5.762 L 80.835 4.688 L 80.103 7.227 A 0.788 0.788 0 0 0 80.607 6.929 Q 80.702 6.812 80.778 6.651 A 1.938 1.938 0 0 0 80.835 6.519 L 82.275 5.762 Z M 64.526 18.848 L 63.477 20.972 L 64.526 21.68 L 65.234 19.531 Q 65.161 19.067 64.526 18.848 Z M 98.95 11.23 L 98.218 8.301 L 97.485 10.132 L 98.95 11.23 Z M 53.613 11.426 A 7.851 7.851 0 0 0 54.803 13.586 A 9.545 9.545 0 0 0 55.371 14.258 A 5.399 5.399 0 0 0 54.532 12.486 A 7.46 7.46 0 0 0 53.613 11.426 Z M 48.315 25.537 L 47.266 27.319 L 48.315 28.027 L 49.365 27.319 A 4.459 4.459 0 0 0 48.685 25.987 A 5.507 5.507 0 0 0 48.315 25.537 Z M 50.439 4.736 L 48.682 5.786 L 51.123 6.519 A 5.783 5.783 0 0 0 51.057 5.941 Q 50.957 5.354 50.74 5.029 A 0.928 0.928 0 0 0 50.439 4.736 Z M 79.736 16.65 A 4.968 4.968 0 0 0 80.976 18.664 A 6.385 6.385 0 0 0 81.567 19.189 A 7.244 7.244 0 0 0 80.593 17.588 A 9.406 9.406 0 0 0 79.736 16.65 Z M 34.961 13.257 L 32.153 12.207 A 3.406 3.406 0 0 0 33.649 13.067 Q 34.241 13.237 34.961 13.257 Z M 115.747 13.257 L 112.939 12.207 A 3.406 3.406 0 0 0 114.435 13.067 Q 115.027 13.237 115.747 13.257 Z M 129.248 4.736 L 128.54 4.053 L 128.198 6.152 L 128.906 6.494 L 129.248 4.736 Z M 129.614 19.58 L 128.54 19.214 L 128.198 20.996 L 128.54 21.338 L 129.614 19.58 Z M 33.911 19.214 L 33.203 18.506 L 33.203 20.947 L 33.911 19.214 Z M 114.697 19.214 L 113.989 18.506 L 113.989 20.947 L 114.697 19.214 Z M 48.682 21.68 L 47.974 21.313 L 47.607 23.071 L 48.315 23.438 L 48.682 21.68 Z M 132.788 6.152 L 131.03 4.395 A 2.865 2.865 0 0 0 132.51 6.027 A 3.948 3.948 0 0 0 132.788 6.152 Z M 6.274 12.5 L 4.858 12.158 A 3.375 3.375 0 0 0 4.934 12.828 Q 5.091 13.526 5.566 13.916 L 6.274 12.5 Z M 129.614 7.568 L 128.906 9.326 L 130.322 8.984 A 2.457 2.457 0 0 0 129.614 7.568 Z M 91.699 4.687 A 4.508 4.508 0 0 0 92.883 5.799 A 5.701 5.701 0 0 0 93.506 6.152 A 3.754 3.754 0 0 0 92.452 5.103 A 5.016 5.016 0 0 0 91.699 4.688 Z M 16.357 5.542 L 15.308 5.2 L 15.308 6.934 L 16.357 5.542 Z M 67.334 5.786 L 66.65 7.91 A 2.633 2.633 0 0 0 67.208 6.836 Q 67.334 6.363 67.334 5.786 Z M 87.72 28.247 L 86.255 28.247 L 86.621 29.321 L 87.72 28.247 Z M 100.757 15.552 L 99.658 15.21 A 2.136 2.136 0 0 0 100.036 16.226 A 2.969 2.969 0 0 0 100.391 16.65 L 100.757 15.552 Z M 83.716 5.762 L 83.374 5.762 L 82.642 6.86 L 83.716 6.86 L 83.716 5.762 Z M 8.691 17.041 L 8.35 15.649 L 7.666 16.675 L 8.691 17.041 Z M 159.839 8.667 L 158.765 7.227 A 2.946 2.946 0 0 0 159.685 8.545 A 3.628 3.628 0 0 0 159.839 8.667 Z M 67.725 13.574 L 66.992 13.574 L 67.334 14.966 L 67.725 13.574 Z M 129.248 22.412 L 128.198 23.804 Q 129.051 23.412 129.229 22.52 A 2.26 2.26 0 0 0 129.248 22.412 Z M 60.303 21.313 L 59.937 22.021 L 60.669 22.363 L 61.011 21.313 L 60.303 21.313 Z M 83.008 16.309 L 81.567 15.552 A 2.206 2.206 0 0 0 83.008 16.309 Z M 97.485 26.807 L 96.045 26.074 A 2.304 2.304 0 0 0 97.377 26.789 A 2.911 2.911 0 0 0 97.485 26.807 Z M 92.065 27.881 L 90.967 28.979 A 1.791 1.791 0 0 0 91.426 28.844 Q 92.011 28.573 92.065 27.881 Z M 160.181 9.741 L 159.839 9.741 L 159.497 10.815 L 160.181 10.815 L 160.181 9.741 Z M 168.042 15.82 L 166.626 15.088 A 2.427 2.427 0 0 0 167.596 15.701 A 3.198 3.198 0 0 0 168.042 15.82 Z M 99.658 10.84 L 100.757 11.938 A 1.63 1.63 0 0 0 99.868 10.929 A 2.359 2.359 0 0 0 99.658 10.84 Z M 170.19 9.375 L 169.849 10.083 L 170.532 10.449 L 170.898 9.741 L 170.19 9.375 Z M 12.549 16.333 L 13.232 17.725 Q 13.086 16.943 12.549 16.333 Z M 17.041 16.675 A 1.747 1.747 0 0 0 18.019 17.686 A 2.225 2.225 0 0 0 18.115 17.725 A 1.655 1.655 0 0 0 17.187 16.734 A 2.245 2.245 0 0 0 17.041 16.675 Z M 82.642 25.708 L 82.275 26.44 L 83.008 26.807 L 83.008 25.708 L 82.642 25.708 Z M 144.458 6.494 L 143.75 6.152 L 144.092 7.202 L 144.458 6.494 Z M 97.852 20.63 L 98.584 21.729 A 1.758 1.758 0 0 0 97.852 20.63 Z M 51.489 8.984 A 1.169 1.169 0 0 0 51.642 9.542 Q 51.774 9.769 52.02 9.932 A 1.678 1.678 0 0 0 52.197 10.034 A 1.609 1.609 0 0 0 52.012 9.502 A 1.403 1.403 0 0 0 51.489 8.984 Z M 142.676 16.04 L 141.968 17.114 A 1.538 1.538 0 0 0 142.345 16.837 A 1.156 1.156 0 0 0 142.676 16.04 Z M 34.619 5.566 L 33.911 4.492 A 1.572 1.572 0 0 0 34.583 5.542 A 1.951 1.951 0 0 0 34.619 5.566 Z M 115.405 5.566 L 114.697 4.492 A 1.572 1.572 0 0 0 115.369 5.542 A 1.951 1.951 0 0 0 115.405 5.566 Z M 50.439 10.376 L 49.365 9.668 A 1.428 1.428 0 0 0 49.879 10.155 Q 50.075 10.268 50.322 10.343 A 2.78 2.78 0 0 0 50.439 10.376 Z M 5.495 6.572 A 2.647 2.647 0 0 0 5.566 6.592 A 1.224 1.224 0 0 0 5.111 6.116 Q 4.932 6.006 4.701 5.93 A 2.621 2.621 0 0 0 4.541 5.884 Q 4.82 6.371 5.495 6.572 Z M 34.253 17.09 L 33.911 17.09 L 34.253 18.164 L 34.253 17.09 Z M 115.039 17.09 L 114.697 17.09 L 115.039 18.164 L 115.039 17.09 Z M 5.908 21.558 L 6.958 22.241 Q 6.741 21.846 6.187 21.643 A 2.729 2.729 0 0 0 5.908 21.558 Z M 19.141 17.041 L 20.19 17.725 Q 19.941 17.309 19.356 17.106 A 2.748 2.748 0 0 0 19.141 17.041 Z M 4.858 27.124 L 4.541 27.832 L 5.225 27.832 L 5.225 27.124 L 4.858 27.124 Z M 8.008 4.492 L 9.033 5.2 A 1.224 1.224 0 0 0 8.578 4.724 Q 8.399 4.614 8.168 4.539 A 2.621 2.621 0 0 0 8.008 4.492 Z M 66.284 11.792 L 65.942 11.792 L 66.284 12.842 L 66.284 11.792 Z M 95.679 7.959 Q 95.801 8.423 96.411 8.691 Q 96.313 8.203 95.679 7.959 Z M 142.31 5.103 A 0.798 0.798 0 0 0 142.577 5.544 Q 142.692 5.645 142.853 5.727 A 2.004 2.004 0 0 0 143.042 5.811 A 0.742 0.742 0 0 0 142.742 5.32 Q 142.625 5.231 142.465 5.161 A 1.933 1.933 0 0 0 142.31 5.103 Z M 52.197 7.568 A 0.832 0.832 0 0 0 52.439 7.987 Q 52.606 8.15 52.881 8.276 Q 52.817 7.873 52.346 7.635 A 1.894 1.894 0 0 0 52.197 7.568 Z M 5.566 25.049 Q 5.664 25.488 6.274 25.732 A 0.787 0.787 0 0 0 6.14 25.503 Q 5.989 25.317 5.7 25.131 A 3.535 3.535 0 0 0 5.566 25.049 Z M 170.898 11.89 L 171.265 12.598 L 171.265 11.89 L 170.898 11.89 Z M 52.197 11.426 L 52.539 12.134 L 52.539 11.426 L 52.197 11.426 Z M 84.106 3.979 L 84.448 4.688 L 84.448 3.979 L 84.106 3.979 Z"
                vector-effect="non-scaling-stroke"
              />
            </g>
          </svg> -->

          <svg width="121pt" height="36pt" viewBox="0 0 121 36" xmlns="http://www.w3.org/2000/svg"><g id="fontsvg1712789485196" stroke-linecap="round" fill-rule="evenodd" fill="#fbfbfb"><path d="M 46.558 14.552 L 46.558 22.072 A 6.626 6.626 0 0 1 46.455 23.292 Q 46.088 25.244 44.409 25.588 A 1.663 1.663 0 0 0 44.23 25.597 Q 44.041 25.617 43.922 25.685 A 0.502 0.502 0 0 0 43.921 25.685 A 2.684 2.684 0 0 1 42.676 25.415 Q 41.564 24.841 41.34 23.049 A 7.926 7.926 0 0 1 41.284 22.072 L 41.284 16.896 A 20.453 20.453 0 0 0 41.243 15.545 Q 41.099 13.377 40.449 12.598 A 1.283 1.283 0 0 0 40.112 12.306 A 4.122 4.122 0 0 0 39.343 12.02 A 3.173 3.173 0 0 0 38.55 11.916 L 38.159 11.916 A 3.46 3.46 0 0 0 37.107 12.253 Q 35.816 12.936 35.816 14.748 A 0.047 0.047 0 0 0 35.78 14.784 Q 35.73 14.899 35.72 15.376 A 12.405 12.405 0 0 0 35.718 15.627 L 35.718 22.072 A 6.626 6.626 0 0 1 35.615 23.292 Q 35.248 25.244 33.569 25.588 A 1.663 1.663 0 0 0 33.39 25.597 Q 33.2 25.617 33.081 25.685 Q 30.857 25.685 30.509 23.044 A 8.222 8.222 0 0 1 30.444 21.974 L 30.444 11.135 A 7.009 7.009 0 0 1 30.556 9.821 Q 30.968 7.673 32.898 7.531 A 3.828 3.828 0 0 1 33.179 7.521 A 2.175 2.175 0 0 1 34.563 8.032 Q 34.892 8.295 35.193 8.693 A 5.6 5.6 0 0 1 35.523 9.181 L 35.718 9.181 A 3.875 3.875 0 0 1 37.477 7.877 Q 38.155 7.611 39.01 7.501 A 10.194 10.194 0 0 1 40.308 7.424 A 7.444 7.444 0 0 1 42.664 7.771 Q 45.335 8.66 46.265 11.818 A 12.79 12.79 0 0 1 46.558 14.552 Z M 110.156 18.215 L 110.352 18.215 A 0.169 0.169 0 0 0 110.449 18.125 Q 110.877 17.494 112.5 12.453 Q 113.899 8.186 114.975 8.062 A 0.56 0.56 0 0 1 115.039 8.058 A 0.103 0.103 0 0 1 115.094 7.973 Q 115.233 7.881 115.723 7.863 A 5.308 5.308 0 0 1 116.718 8.052 Q 118.322 8.537 118.359 10.039 A 2.899 2.899 0 0 1 118.36 10.109 L 118.36 10.402 Q 118.36 11.336 115.534 17.887 A 343.43 343.43 0 0 1 114.453 20.363 A 462.222 462.222 0 0 1 112.944 24.079 Q 110.29 30.529 109.246 32.346 A 5.636 5.636 0 0 1 108.985 32.765 A 5.133 5.133 0 0 1 108.347 33.067 A 3.834 3.834 0 0 1 107.715 33.254 A 5.201 5.201 0 0 1 106.696 33.036 Q 105.146 32.519 105.081 31.04 A 2.99 2.99 0 0 1 105.078 30.91 L 105.078 30.617 A 2.246 2.246 0 0 1 105.168 30.085 Q 105.485 28.876 106.931 25.801 A 124.412 124.412 0 0 1 107.617 24.367 L 107.617 24.172 A 2777.752 2777.752 0 0 1 106.336 21.169 Q 102.149 11.342 102.149 11.086 L 102.149 10.207 A 2.01 2.01 0 0 1 103.123 8.419 Q 103.496 8.178 104.011 8.014 A 5.905 5.905 0 0 1 104.59 7.863 A 2.765 2.765 0 0 1 105.491 8.001 Q 106.441 8.327 106.836 9.426 A 837.381 837.381 0 0 0 107.556 11.427 Q 109.921 17.98 110.156 18.215 Z M 68.652 0.978 L 68.75 0.978 Q 70.156 1.888 70.371 4.059 A 8.378 8.378 0 0 1 70.41 4.885 L 70.41 23.146 Q 70.41 24.856 69.834 25.919 A 3.062 3.062 0 0 1 68.457 27.248 Q 67.965 27.388 67.574 27.428 A 2.887 2.887 0 0 1 67.285 27.443 L 66.797 27.443 Q 65.952 27.443 65.081 26.702 A 6.051 6.051 0 0 1 64.453 26.076 Q 62.964 27.541 60.742 27.541 L 60.156 27.541 A 7.265 7.265 0 0 1 55.591 25.914 A 10.516 10.516 0 0 1 54.297 24.709 L 54.297 24.611 A 8.116 8.116 0 0 0 59.277 26.271 A 6.145 6.145 0 0 0 63.184 24.904 L 63.281 24.904 A 5.206 5.206 0 0 0 64.073 25.587 Q 64.592 25.944 65.127 26.084 A 2.736 2.736 0 0 0 65.82 26.174 Q 68.58 26.174 69.046 22.802 A 11.076 11.076 0 0 0 69.141 21.291 L 69.141 4.299 A 11.478 11.478 0 0 0 68.92 2.014 A 9.961 9.961 0 0 0 68.652 0.978 Z M 5.469 1.662 L 7.813 1.662 A 28.127 28.127 0 0 1 9.514 1.709 Q 12.904 1.916 13.281 3.029 A 4.965 4.965 0 0 1 13.43 3.399 Q 13.574 3.811 13.574 4.103 L 13.574 4.396 A 1.965 1.965 0 0 1 12.47 6.271 Q 11.649 6.702 10.217 6.737 A 10.55 10.55 0 0 1 9.961 6.74 L 5.664 6.74 Q 5.548 6.74 5.433 6.923 A 1.261 1.261 0 0 0 5.371 7.033 L 5.371 10.646 Q 5.371 10.762 5.554 10.878 A 1.261 1.261 0 0 0 5.664 10.939 L 9.375 10.939 A 7.615 7.615 0 0 1 10.649 11.036 Q 12.988 11.435 12.988 13.478 A 2.042 2.042 0 0 1 11.833 15.427 Q 10.967 15.88 9.451 15.916 A 11.251 11.251 0 0 1 9.18 15.92 L 5.664 15.92 Q 5.548 15.92 5.433 16.102 A 1.261 1.261 0 0 0 5.371 16.213 L 5.371 21.974 Q 5.371 25.588 2.735 25.588 L 2.637 25.588 A 2.684 2.684 0 0 1 1.392 25.317 Q 0.28 24.744 0.056 22.952 A 7.926 7.926 0 0 1 0 21.974 L 0 5.275 A 7.096 7.096 0 0 1 0.069 4.246 Q 0.247 3.036 0.886 2.46 A 1.873 1.873 0 0 1 1.172 2.248 A 1.91 1.91 0 0 1 1.7 2.007 Q 2.613 1.722 4.583 1.672 A 35.021 35.021 0 0 1 5.469 1.662 Z M 68.457 2.931 L 68.457 22.072 Q 68.457 25.52 66.014 25.586 A 3.564 3.564 0 0 1 65.918 25.588 Q 64.613 25.588 63.668 24.224 A 5.588 5.588 0 0 1 63.477 23.927 L 63.184 23.927 A 4.967 4.967 0 0 1 59.789 25.651 A 7.001 7.001 0 0 1 59.082 25.685 A 6.907 6.907 0 0 1 53.783 23.231 Q 52.871 22.222 52.104 20.798 A 17.158 17.158 0 0 1 51.758 20.119 Q 51.074 18.166 51.074 16.213 A 9.774 9.774 0 0 1 51.912 12.098 Q 52.909 9.92 55.094 8.39 A 12.899 12.899 0 0 1 56.348 7.619 A 8.103 8.103 0 0 1 58.089 7.188 A 7.043 7.043 0 0 1 58.985 7.131 L 59.57 7.131 A 4.933 4.933 0 0 1 61.031 7.336 A 3.804 3.804 0 0 1 62.891 8.595 L 62.988 8.595 A 0.378 0.378 0 0 0 63.222 8.369 Q 63.255 8.293 63.269 8.192 A 1.269 1.269 0 0 0 63.281 8.01 L 63.281 3.517 A 6.63 6.63 0 0 1 63.394 2.234 Q 63.837 0.002 66.016 0.002 A 2.047 2.047 0 0 1 67.886 1.048 Q 68.131 1.455 68.284 2.021 A 6.686 6.686 0 0 1 68.457 2.931 Z M 94.531 0.099 L 94.727 0.099 Q 97.137 0.312 97.798 1.451 A 1.941 1.941 0 0 1 98.047 2.443 Q 98.144 2.443 98.145 2.825 A 3.044 3.044 0 0 1 98.145 2.834 A 1.733 1.733 0 0 1 97.28 4.405 Q 96.948 4.61 96.489 4.741 A 5.341 5.341 0 0 1 95.801 4.885 Q 94.907 4.885 94.686 5.592 A 1.54 1.54 0 0 0 94.629 5.861 L 94.629 7.814 A 0.338 0.338 0 0 0 94.648 7.893 Q 94.692 8.01 94.824 8.01 L 95.508 8.01 Q 97.02 8.01 97.869 8.711 A 2.678 2.678 0 0 1 98.633 9.767 L 98.633 10.451 A 1.772 1.772 0 0 1 97.555 12.143 Q 96.633 12.599 94.922 12.599 L 94.824 12.599 A 0.338 0.338 0 0 0 94.746 12.618 Q 94.629 12.662 94.629 12.795 L 94.629 20.119 Q 94.629 23.977 93.652 25.019 A 1.151 1.151 0 0 1 92.969 25.392 A 0.072 0.072 0 0 1 92.925 25.444 Q 92.784 25.529 92.193 25.635 A 15.577 15.577 0 0 1 91.895 25.685 A 2.684 2.684 0 0 1 90.65 25.415 Q 89.537 24.841 89.314 23.049 A 7.926 7.926 0 0 1 89.258 22.072 L 89.258 13.674 L 89.356 12.697 Q 87.214 12.47 86.495 11.596 A 1.598 1.598 0 0 1 86.133 10.549 L 86.133 10.06 A 1.615 1.615 0 0 1 86.884 8.697 Q 87.521 8.242 88.699 7.997 A 10.276 10.276 0 0 1 89.16 7.912 L 89.16 7.814 A 16.408 16.408 0 0 1 89.365 5.095 Q 90.209 0.099 94.531 0.099 Z M 119.043 10.402 L 118.75 8.937 L 118.848 8.937 A 2.851 2.851 0 0 1 120.257 10.984 A 4.057 4.057 0 0 1 120.313 11.672 A 2.682 2.682 0 0 1 120.191 12.295 Q 119.748 13.876 117.699 18.714 A 329.716 329.716 0 0 1 116.699 21.047 Q 111.841 32.839 110.938 34.23 Q 110.01 35.109 109.18 35.109 L 108.692 35.109 Q 107.149 35.109 106.22 33.881 A 4.076 4.076 0 0 1 106.055 33.644 Q 106.132 33.644 106.148 33.583 A 0.144 0.144 0 0 0 106.152 33.547 A 4.689 4.689 0 0 0 107.812 33.84 Q 109.996 33.84 111.504 29.019 A 24.613 24.613 0 0 0 111.524 28.957 A 1972.358 1972.358 0 0 0 113.263 24.888 Q 118.945 11.553 118.945 10.89 A 1.663 1.663 0 0 1 118.955 10.711 Q 118.975 10.522 119.043 10.403 A 0.502 0.502 0 0 1 119.043 10.402 Z M 13.574 12.892 L 13.379 12.209 L 13.574 12.209 A 3.177 3.177 0 0 1 14.407 12.964 Q 14.917 13.64 14.94 14.559 A 3.505 3.505 0 0 1 14.942 14.65 Q 14.942 17.337 11.683 17.784 A 10.564 10.564 0 0 1 10.254 17.873 L 7.324 17.873 L 7.324 22.951 A 8.787 8.787 0 0 1 7.179 24.625 Q 6.611 27.541 3.809 27.541 A 3.19 3.19 0 0 1 2.636 27.334 Q 1.807 27.009 1.27 26.174 L 1.27 25.978 L 2.637 26.271 A 5.658 5.658 0 0 0 3.927 25.984 Q 5.636 25.364 5.834 23.62 A 4.216 4.216 0 0 0 5.86 23.146 A 0.107 0.107 0 0 0 5.926 23.054 Q 6.054 22.656 6.055 20.537 A 69.221 69.221 0 0 0 6.055 20.51 L 6.055 16.701 A 0.338 0.338 0 0 1 6.073 16.622 Q 6.118 16.506 6.25 16.506 L 9.57 16.506 A 7.207 7.207 0 0 0 10.974 16.38 Q 11.737 16.228 12.286 15.892 A 2.817 2.817 0 0 0 13.574 14.064 L 13.574 12.892 Z M 99.317 10.353 L 99.121 9.279 L 99.317 9.279 A 2.639 2.639 0 0 1 100.206 10.147 Q 100.586 10.768 100.586 11.623 Q 100.586 13.499 98.492 14.245 A 6.092 6.092 0 0 1 98.145 14.357 L 96.485 14.552 L 96.485 23.244 A 7.217 7.217 0 0 1 96.34 24.75 Q 95.867 26.961 93.848 27.541 L 92.676 27.541 Q 91.702 27.541 90.834 26.626 A 5.11 5.11 0 0 1 90.527 26.271 L 90.527 26.076 A 30.796 30.796 0 0 0 90.952 26.152 Q 91.514 26.249 91.784 26.267 A 1.654 1.654 0 0 0 91.895 26.271 A 3.194 3.194 0 0 0 93.537 25.871 Q 95.215 24.888 95.215 21.486 L 95.215 13.381 A 0.104 0.104 0 0 1 95.287 13.307 Q 95.538 13.18 96.664 13.052 A 34.05 34.05 0 0 1 97.266 12.99 Q 99.317 12.16 99.317 10.353 Z M 23.657 8.498 L 23.755 8.498 A 3.132 3.132 0 0 1 25.013 10.043 Q 25.246 10.617 25.344 11.349 A 8.699 8.699 0 0 1 25.415 12.502 L 25.415 23.146 A 7.879 7.879 0 0 1 25.276 24.693 Q 25.107 25.535 24.733 26.144 A 3.151 3.151 0 0 1 22.876 27.541 L 21.704 27.541 Q 20.508 27.541 19.556 26.271 L 19.458 26.076 L 19.556 26.076 A 30.796 30.796 0 0 0 19.98 26.152 Q 20.543 26.249 20.812 26.267 A 1.654 1.654 0 0 0 20.923 26.271 Q 23.411 26.271 23.979 23.453 A 7.384 7.384 0 0 0 24.048 23.049 Q 24.146 21.584 24.146 20.607 L 24.146 12.795 Q 24.146 9.865 23.657 8.498 Z M 79.346 8.498 L 79.443 8.498 A 3.132 3.132 0 0 1 80.701 10.043 Q 80.934 10.617 81.032 11.349 A 8.699 8.699 0 0 1 81.104 12.502 L 81.104 23.146 A 7.879 7.879 0 0 1 80.964 24.693 Q 80.795 25.535 80.421 26.144 A 3.151 3.151 0 0 1 78.565 27.541 L 77.393 27.541 Q 76.196 27.541 75.244 26.271 L 75.147 26.076 L 75.244 26.076 A 30.796 30.796 0 0 0 75.669 26.152 Q 76.231 26.249 76.501 26.267 A 1.654 1.654 0 0 0 76.611 26.271 Q 79.1 26.271 79.667 23.453 A 7.384 7.384 0 0 0 79.736 23.049 Q 79.834 21.584 79.834 20.607 L 79.834 12.795 Q 79.834 9.865 79.346 8.498 Z M 45.972 9.572 L 45.972 9.474 L 46.069 9.474 Q 48.511 11.11 48.511 16.896 L 48.511 21.779 Q 48.511 26.192 46.886 27.175 A 1.892 1.892 0 0 1 46.753 27.248 A 7.641 7.641 0 0 1 46.232 27.402 Q 45.691 27.541 45.288 27.541 L 44.995 27.541 A 3.069 3.069 0 0 1 43.819 27.323 Q 43.122 27.037 42.627 26.374 A 3.617 3.617 0 0 1 42.554 26.271 L 42.554 26.076 A 30.796 30.796 0 0 0 42.978 26.152 Q 43.541 26.249 43.81 26.267 A 1.654 1.654 0 0 0 43.921 26.271 Q 47.144 26.271 47.144 22.17 L 47.144 13.967 A 9.369 9.369 0 0 0 46.903 11.794 A 7.163 7.163 0 0 0 45.972 9.572 Z M 20.728 7.521 L 21.021 7.521 Q 23.051 7.521 23.393 10.021 A 8.257 8.257 0 0 1 23.462 11.135 L 23.462 22.072 A 7.615 7.615 0 0 1 23.365 23.346 Q 22.966 25.685 20.923 25.685 Q 19.562 25.685 18.858 24.57 A 3.544 3.544 0 0 1 18.579 24.025 Q 18.261 23.369 18.202 21.19 A 39.728 39.728 0 0 1 18.189 20.119 L 18.189 12.99 A 22.888 22.888 0 0 1 18.243 11.333 Q 18.429 8.786 19.246 8.033 A 1.14 1.14 0 0 1 20.044 7.717 A 0.103 0.103 0 0 1 20.099 7.631 Q 20.238 7.539 20.728 7.521 Z M 76.416 7.521 L 76.709 7.521 Q 78.74 7.521 79.081 10.021 A 8.257 8.257 0 0 1 79.151 11.135 L 79.151 22.072 A 7.615 7.615 0 0 1 79.054 23.346 Q 78.655 25.685 76.611 25.685 Q 75.251 25.685 74.546 24.57 A 3.544 3.544 0 0 1 74.268 24.025 Q 73.95 23.369 73.891 21.19 A 39.728 39.728 0 0 1 73.877 20.119 L 73.877 12.99 A 22.888 22.888 0 0 1 73.932 11.333 Q 74.118 8.786 74.935 8.033 A 1.14 1.14 0 0 1 75.733 7.717 A 0.103 0.103 0 0 1 75.787 7.631 Q 75.926 7.539 76.416 7.521 Z M 40.308 13.771 L 40.308 13.869 L 39.429 13.869 Q 37.671 13.869 37.671 16.506 L 37.671 21.779 Q 37.671 26.192 36.046 27.175 A 1.892 1.892 0 0 1 35.913 27.248 A 7.641 7.641 0 0 1 35.393 27.402 Q 34.851 27.541 34.448 27.541 L 34.155 27.541 A 3.069 3.069 0 0 1 32.979 27.323 Q 32.282 27.037 31.788 26.374 A 3.617 3.617 0 0 1 31.714 26.271 L 31.714 26.076 A 30.796 30.796 0 0 0 32.138 26.152 Q 32.701 26.249 32.971 26.267 A 1.654 1.654 0 0 0 33.081 26.271 Q 36.304 26.271 36.304 22.17 L 36.304 16.603 A 23.907 23.907 0 0 1 36.347 15.534 Q 36.518 12.892 37.28 12.892 Q 37.354 12.648 38.55 12.502 A 4.805 4.805 0 0 1 39.186 12.639 Q 40.308 12.972 40.308 13.771 Z M 13.965 3.029 L 14.16 2.931 A 4.172 4.172 0 0 1 14.932 3.707 A 2.877 2.877 0 0 1 15.527 5.47 A 3.141 3.141 0 0 1 15.154 7.046 Q 14.433 8.316 12.317 8.607 A 10.172 10.172 0 0 1 10.938 8.693 L 7.324 8.693 L 7.324 10.06 A 0.281 0.281 0 0 1 7.315 10.138 Q 7.29 10.224 7.201 10.247 A 0.288 0.288 0 0 1 7.129 10.256 L 6.25 10.256 A 0.281 0.281 0 0 1 6.173 10.246 Q 6.086 10.221 6.063 10.133 A 0.288 0.288 0 0 1 6.055 10.06 L 6.055 7.521 A 0.338 0.338 0 0 1 6.073 7.443 Q 6.118 7.326 6.25 7.326 L 10.254 7.326 Q 13.574 7.326 14.16 4.885 L 14.16 3.81 A 1.636 1.636 0 0 0 13.965 3.029 Z M 56.543 15.822 L 56.543 16.701 A 5.139 5.139 0 0 0 56.752 18.213 A 3.671 3.671 0 0 0 58.789 20.51 A 1.636 1.636 0 0 0 59.57 20.705 L 60.254 20.705 A 2.431 2.431 0 0 0 62.252 19.669 Q 62.584 19.238 62.847 18.629 A 8.146 8.146 0 0 0 63.184 17.677 A 2.658 2.658 0 0 0 63.25 17.332 Q 63.281 17.089 63.281 16.799 L 63.281 16.017 A 5.205 5.205 0 0 0 63.069 14.479 Q 62.577 12.885 60.946 12.157 A 5.181 5.181 0 0 0 60.84 12.111 A 0.743 0.743 0 0 0 60.543 12.018 A 0.922 0.922 0 0 0 60.449 12.013 L 59.57 12.013 A 2.455 2.455 0 0 0 57.392 13.286 Q 57.083 13.78 56.863 14.465 A 9.613 9.613 0 0 0 56.543 15.822 Z M 24.048 1.271 L 24.146 1.271 A 5.145 5.145 0 0 1 25.056 2.168 A 3.397 3.397 0 0 1 25.806 4.299 L 25.806 4.494 A 3.365 3.365 0 0 1 25.284 6.369 Q 24.872 7.005 24.132 7.471 A 5.734 5.734 0 0 1 23.267 7.912 L 23.169 7.912 A 3.153 3.153 0 0 0 22.593 7.361 A 2.133 2.133 0 0 0 21.314 6.935 L 20.435 6.935 Q 20.208 6.935 19.647 7.103 A 11.43 11.43 0 0 0 19.556 7.131 A 15.625 15.625 0 0 1 19.441 6.992 Q 19.146 6.629 19.084 6.499 A 0.136 0.136 0 0 1 19.068 6.447 L 19.165 6.447 A 14.569 14.569 0 0 0 19.522 6.561 Q 20.009 6.71 20.25 6.735 A 0.851 0.851 0 0 0 20.337 6.74 L 21.411 6.74 A 2.595 2.595 0 0 0 23.46 5.748 Q 23.808 5.339 24.094 4.761 A 7.285 7.285 0 0 0 24.341 4.201 A 0.38 0.38 0 0 0 24.38 4.11 Q 24.453 3.886 24.525 3.233 A 19.76 19.76 0 0 0 24.536 3.127 A 2.749 2.749 0 0 0 24.489 2.641 Q 24.384 2.06 24.048 1.271 Z M 79.736 1.271 L 79.834 1.271 A 5.145 5.145 0 0 1 80.745 2.168 A 3.397 3.397 0 0 1 81.494 4.299 L 81.494 4.494 A 3.365 3.365 0 0 1 80.973 6.369 Q 80.56 7.005 79.82 7.471 A 5.734 5.734 0 0 1 78.955 7.912 L 78.858 7.912 A 3.153 3.153 0 0 0 78.282 7.361 A 2.133 2.133 0 0 0 77.002 6.935 L 76.123 6.935 Q 75.897 6.935 75.335 7.103 A 11.43 11.43 0 0 0 75.244 7.131 A 15.625 15.625 0 0 1 75.13 6.992 Q 74.834 6.629 74.772 6.499 A 0.136 0.136 0 0 1 74.756 6.447 L 74.854 6.447 A 14.569 14.569 0 0 0 75.21 6.561 Q 75.698 6.71 75.938 6.735 A 0.851 0.851 0 0 0 76.026 6.74 L 77.1 6.74 A 2.595 2.595 0 0 0 79.148 5.748 Q 79.496 5.339 79.782 4.761 A 7.285 7.285 0 0 0 80.029 4.201 A 0.38 0.38 0 0 0 80.069 4.11 Q 80.141 3.886 80.213 3.233 A 19.76 19.76 0 0 0 80.225 3.127 A 2.749 2.749 0 0 0 80.177 2.641 Q 80.072 2.06 79.736 1.271 Z M 59.766 12.599 L 60.059 12.599 A 2.024 2.024 0 0 1 61.413 13.127 Q 61.786 13.449 62.11 13.967 Q 62.032 13.967 62.016 14.028 A 0.144 0.144 0 0 0 62.012 14.064 A 0.794 0.794 0 0 0 61.903 14.021 Q 61.707 13.958 61.304 13.895 A 11.983 11.983 0 0 0 61.133 13.869 A 2.193 2.193 0 0 0 59.117 15.024 Q 58.646 15.827 58.496 17.189 L 58.496 17.97 Q 58.496 19.045 58.887 19.728 L 58.692 19.826 Q 57.129 18.654 57.129 16.31 A 5.698 5.698 0 0 1 57.279 14.947 Q 57.724 13.142 59.496 12.663 A 4.389 4.389 0 0 1 59.766 12.599 Z M 20.142 0.197 L 20.728 0.099 L 21.021 0.099 A 2.551 2.551 0 0 1 23.114 1.17 Q 23.433 1.579 23.689 2.146 A 6.976 6.976 0 0 1 23.853 2.541 L 23.853 3.517 Q 23.853 5.049 22.049 5.874 A 6.36 6.36 0 0 1 21.607 6.056 A 0.262 0.262 0 0 1 21.527 6.096 Q 21.355 6.154 20.923 6.154 L 20.825 6.154 A 5.422 5.422 0 0 1 19.653 5.865 Q 18.041 5.249 17.908 3.624 A 3.688 3.688 0 0 1 17.896 3.322 L 17.896 3.029 A 2.647 2.647 0 0 1 19.006 0.803 Q 19.431 0.484 20.018 0.245 A 6.067 6.067 0 0 1 20.142 0.197 Z M 75.83 0.197 L 76.416 0.099 L 76.709 0.099 A 2.551 2.551 0 0 1 78.803 1.17 Q 79.121 1.579 79.377 2.146 A 6.976 6.976 0 0 1 79.541 2.541 L 79.541 3.517 Q 79.541 5.049 77.737 5.874 A 6.36 6.36 0 0 1 77.295 6.056 A 0.262 0.262 0 0 1 77.215 6.096 Q 77.044 6.154 76.611 6.154 L 76.514 6.154 A 5.422 5.422 0 0 1 75.341 5.865 Q 73.73 5.249 73.596 3.624 A 3.688 3.688 0 0 1 73.584 3.322 L 73.584 3.029 A 2.647 2.647 0 0 1 74.695 0.803 Q 75.119 0.484 75.707 0.245 A 6.067 6.067 0 0 1 75.83 0.197 Z M 98.535 1.369 L 98.633 1.369 A 4.912 4.912 0 0 1 99.294 1.971 Q 99.624 2.337 99.799 2.72 A 2.123 2.123 0 0 1 100 3.615 L 100 4.396 Q 100 6.236 96.994 6.89 A 11.033 11.033 0 0 1 96.777 6.935 Q 96.655 6.935 96.387 7.424 L 95.508 7.424 Q 95.392 7.424 95.277 7.241 A 1.261 1.261 0 0 1 95.215 7.131 L 95.215 5.959 A 0.217 0.217 0 0 1 95.317 5.802 Q 95.672 5.519 97.266 5.177 A 2.886 2.886 0 0 0 98.096 4.574 Q 98.646 3.985 98.719 3.109 A 3.307 3.307 0 0 0 98.731 2.834 L 98.731 2.443 A 0.645 0.645 0 0 0 98.724 2.369 Q 98.7 2.186 98.589 1.634 A 62.822 62.822 0 0 0 98.535 1.369 Z M 107.324 8.84 L 107.422 8.84 A 0.736 0.736 0 0 1 107.923 9.152 Q 108.814 10.169 110.21 14.486 A 90.255 90.255 0 0 1 110.645 15.871 A 0.152 0.152 0 0 1 110.64 15.897 Q 110.613 16.015 110.422 16.625 A 106.569 106.569 0 0 1 110.352 16.847 L 110.156 16.847 A 1.085 1.085 0 0 0 110.112 16.685 Q 109.848 15.844 108.014 10.75 A 1959.026 1959.026 0 0 0 107.324 8.84 Z M 87.012 12.892 L 87.207 12.892 A 16.137 16.137 0 0 1 87.601 12.981 Q 88.389 13.171 88.539 13.315 A 0.094 0.094 0 0 1 88.574 13.381 L 88.574 13.967 A 0.281 0.281 0 0 1 88.565 14.044 Q 88.54 14.131 88.451 14.154 A 0.288 0.288 0 0 1 88.379 14.162 A 3.151 3.151 0 0 1 87.387 13.422 A 2.996 2.996 0 0 1 87.012 12.892 Z" vector-effect="non-scaling-stroke"/></g></svg>