<svg width="250pt" height="36pt" viewBox="0 0 250 36" xmlns="http://www.w3.org/2000/svg"><g id="fontsvg1712789587594" stroke-linecap="round" fill-rule="evenodd" fill="#C777F1"><path d="M 178.174 9.181 L 178.467 9.181 A 3.408 3.408 0 0 1 178.919 8.381 A 2.157 2.157 0 0 1 180.713 7.521 Q 182.831 7.521 183.182 10.103 A 8.409 8.409 0 0 1 183.252 11.232 L 183.252 22.267 A 26.118 26.118 0 0 1 183.123 24.97 Q 182.841 27.669 181.941 29.222 A 4.545 4.545 0 0 1 180.908 30.47 A 8.792 8.792 0 0 1 176.27 32.809 A 12.55 12.55 0 0 1 173.975 33.01 Q 167.813 32.529 166.7 30.41 A 2.148 2.148 0 0 1 166.455 29.396 L 166.455 28.81 A 1.659 1.659 0 0 1 167.274 27.316 Q 167.781 26.997 168.604 26.857 L 172.998 28.127 A 7.468 7.468 0 0 0 173.645 28.2 A 10.124 10.124 0 0 0 174.365 28.224 A 4.488 4.488 0 0 0 175.894 27.979 Q 177.403 27.436 178.076 25.685 Q 178.253 24.848 178.27 24.329 A 3.281 3.281 0 0 0 178.272 24.22 L 178.272 23.342 A 0.281 0.281 0 0 0 178.262 23.264 Q 178.237 23.178 178.149 23.155 A 0.288 0.288 0 0 0 178.076 23.146 L 177.881 23.146 L 177.002 24.611 A 5.637 5.637 0 0 1 174.503 25.605 A 7.477 7.477 0 0 1 173.389 25.685 A 6.326 6.326 0 0 1 168.207 23.054 Q 167.446 22.083 166.83 20.752 A 16.222 16.222 0 0 1 166.553 20.119 A 10.181 10.181 0 0 1 166.049 17.891 A 12.938 12.938 0 0 1 165.967 16.408 A 9.819 9.819 0 0 1 166.709 12.512 Q 167.693 10.208 169.986 8.655 A 12.46 12.46 0 0 1 171.24 7.912 Q 172.226 7.429 173.644 7.344 A 10.443 10.443 0 0 1 174.268 7.326 A 5.09 5.09 0 0 1 176.299 7.72 A 4.852 4.852 0 0 1 178.174 9.181 Z M 46.558 14.552 L 46.558 22.072 A 6.626 6.626 0 0 1 46.455 23.292 Q 46.088 25.244 44.409 25.588 A 1.663 1.663 0 0 0 44.23 25.597 Q 44.041 25.617 43.922 25.685 A 0.502 0.502 0 0 0 43.921 25.685 A 2.684 2.684 0 0 1 42.676 25.415 Q 41.564 24.841 41.34 23.049 A 7.926 7.926 0 0 1 41.284 22.072 L 41.284 16.896 A 20.453 20.453 0 0 0 41.243 15.545 Q 41.099 13.377 40.449 12.598 A 1.283 1.283 0 0 0 40.112 12.306 A 4.122 4.122 0 0 0 39.343 12.02 A 3.173 3.173 0 0 0 38.55 11.916 L 38.159 11.916 A 3.46 3.46 0 0 0 37.107 12.253 Q 35.816 12.936 35.816 14.748 A 0.047 0.047 0 0 0 35.78 14.784 Q 35.73 14.899 35.72 15.376 A 12.405 12.405 0 0 0 35.718 15.627 L 35.718 22.072 A 6.626 6.626 0 0 1 35.615 23.292 Q 35.248 25.244 33.569 25.588 A 1.663 1.663 0 0 0 33.39 25.597 Q 33.2 25.617 33.081 25.685 Q 30.857 25.685 30.509 23.044 A 8.222 8.222 0 0 1 30.444 21.974 L 30.444 11.135 A 7.009 7.009 0 0 1 30.556 9.821 Q 30.968 7.673 32.898 7.531 A 3.828 3.828 0 0 1 33.179 7.521 A 2.175 2.175 0 0 1 34.563 8.032 Q 34.892 8.295 35.193 8.693 A 5.6 5.6 0 0 1 35.523 9.181 L 35.718 9.181 A 3.875 3.875 0 0 1 37.477 7.877 Q 38.155 7.611 39.01 7.501 A 10.194 10.194 0 0 1 40.308 7.424 A 7.444 7.444 0 0 1 42.664 7.771 Q 45.335 8.66 46.265 11.818 A 12.79 12.79 0 0 1 46.558 14.552 Z M 204.028 14.552 L 204.028 22.072 A 6.626 6.626 0 0 1 203.926 23.292 Q 203.558 25.244 201.88 25.588 A 1.663 1.663 0 0 0 201.7 25.597 Q 201.511 25.617 201.393 25.685 A 0.502 0.502 0 0 0 201.392 25.685 A 2.684 2.684 0 0 1 200.147 25.415 Q 199.034 24.841 198.811 23.049 A 7.926 7.926 0 0 1 198.755 22.072 L 198.755 16.896 A 20.453 20.453 0 0 0 198.714 15.545 Q 198.57 13.377 197.92 12.598 A 1.283 1.283 0 0 0 197.583 12.306 A 4.122 4.122 0 0 0 196.814 12.02 A 3.173 3.173 0 0 0 196.021 11.916 L 195.63 11.916 A 3.46 3.46 0 0 0 194.577 12.253 Q 193.286 12.936 193.286 14.748 A 0.047 0.047 0 0 0 193.251 14.784 Q 193.201 14.899 193.191 15.376 A 12.405 12.405 0 0 0 193.189 15.627 L 193.189 22.072 A 6.626 6.626 0 0 1 193.086 23.292 Q 192.719 25.244 191.04 25.588 A 1.663 1.663 0 0 0 190.86 25.597 Q 190.671 25.617 190.552 25.685 Q 188.327 25.685 187.98 23.044 A 8.222 8.222 0 0 1 187.915 21.974 L 187.915 11.135 A 7.009 7.009 0 0 1 188.027 9.821 Q 188.439 7.673 190.369 7.531 A 3.828 3.828 0 0 1 190.65 7.521 A 2.175 2.175 0 0 1 192.034 8.032 Q 192.363 8.295 192.664 8.693 A 5.6 5.6 0 0 1 192.993 9.181 L 193.189 9.181 A 3.875 3.875 0 0 1 194.947 7.877 Q 195.625 7.611 196.481 7.501 A 10.194 10.194 0 0 1 197.778 7.424 A 7.444 7.444 0 0 1 200.135 7.771 Q 202.805 8.66 203.735 11.818 A 12.79 12.79 0 0 1 204.028 14.552 Z M 110.156 18.215 L 110.352 18.215 A 0.169 0.169 0 0 0 110.449 18.125 Q 110.877 17.494 112.5 12.453 Q 113.899 8.186 114.975 8.062 A 0.56 0.56 0 0 1 115.039 8.058 A 0.103 0.103 0 0 1 115.094 7.973 Q 115.233 7.881 115.723 7.863 A 5.308 5.308 0 0 1 116.718 8.052 Q 118.322 8.537 118.359 10.039 A 2.899 2.899 0 0 1 118.36 10.109 L 118.36 10.402 Q 118.36 11.336 115.534 17.887 A 343.43 343.43 0 0 1 114.453 20.363 A 462.222 462.222 0 0 1 112.944 24.079 Q 110.29 30.529 109.246 32.346 A 5.636 5.636 0 0 1 108.985 32.765 A 5.133 5.133 0 0 1 108.347 33.067 A 3.834 3.834 0 0 1 107.715 33.254 A 5.201 5.201 0 0 1 106.696 33.036 Q 105.146 32.519 105.081 31.04 A 2.99 2.99 0 0 1 105.078 30.91 L 105.078 30.617 A 2.246 2.246 0 0 1 105.168 30.085 Q 105.485 28.876 106.931 25.801 A 124.412 124.412 0 0 1 107.617 24.367 L 107.617 24.172 A 2777.752 2777.752 0 0 1 106.336 21.169 Q 102.149 11.342 102.149 11.086 L 102.149 10.207 A 2.01 2.01 0 0 1 103.123 8.419 Q 103.496 8.178 104.011 8.014 A 5.905 5.905 0 0 1 104.59 7.863 A 2.765 2.765 0 0 1 105.491 8.001 Q 106.441 8.327 106.836 9.426 A 837.381 837.381 0 0 0 107.556 11.427 Q 109.921 17.98 110.156 18.215 Z M 68.652 0.978 L 68.75 0.978 Q 70.156 1.888 70.371 4.059 A 8.378 8.378 0 0 1 70.41 4.885 L 70.41 23.146 Q 70.41 24.856 69.834 25.919 A 3.062 3.062 0 0 1 68.457 27.248 Q 67.965 27.388 67.574 27.428 A 2.887 2.887 0 0 1 67.285 27.443 L 66.797 27.443 Q 65.952 27.443 65.081 26.702 A 6.051 6.051 0 0 1 64.453 26.076 Q 62.964 27.541 60.742 27.541 L 60.156 27.541 A 7.265 7.265 0 0 1 55.591 25.914 A 10.516 10.516 0 0 1 54.297 24.709 L 54.297 24.611 A 8.116 8.116 0 0 0 59.277 26.271 A 6.145 6.145 0 0 0 63.184 24.904 L 63.281 24.904 A 5.206 5.206 0 0 0 64.073 25.587 Q 64.592 25.944 65.127 26.084 A 2.736 2.736 0 0 0 65.82 26.174 Q 68.58 26.174 69.046 22.802 A 11.076 11.076 0 0 0 69.141 21.291 L 69.141 4.299 A 11.478 11.478 0 0 0 68.92 2.014 A 9.961 9.961 0 0 0 68.652 0.978 Z M 213.818 12.013 L 213.818 17.677 A 5.275 5.275 0 0 0 213.927 18.801 Q 214.344 20.705 216.358 20.705 L 216.455 20.705 Q 218.68 20.705 219.027 18.064 A 8.222 8.222 0 0 0 219.092 16.994 L 219.092 10.939 Q 219.092 7.228 221.826 7.228 Q 224.365 7.228 224.365 11.818 L 224.365 16.701 A 19.007 19.007 0 0 1 224.2 19.318 Q 223.635 23.362 221.143 24.513 A 8.279 8.279 0 0 1 218.232 25.547 A 10.979 10.979 0 0 1 216.455 25.685 A 11.102 11.102 0 0 1 213.709 25.37 A 6.575 6.575 0 0 1 209.131 21.584 A 9.106 9.106 0 0 1 208.545 18.361 L 208.545 10.744 A 6.63 6.63 0 0 1 208.658 9.461 Q 209.1 7.228 211.279 7.228 A 2.069 2.069 0 0 1 213.242 8.539 Q 213.716 9.52 213.8 11.235 A 15.843 15.843 0 0 1 213.818 12.013 Z M 5.469 1.662 L 7.813 1.662 A 28.127 28.127 0 0 1 9.514 1.709 Q 12.904 1.916 13.281 3.029 A 4.965 4.965 0 0 1 13.43 3.399 Q 13.574 3.811 13.574 4.103 L 13.574 4.396 A 1.965 1.965 0 0 1 12.47 6.271 Q 11.649 6.702 10.217 6.737 A 10.55 10.55 0 0 1 9.961 6.74 L 5.664 6.74 Q 5.548 6.74 5.433 6.923 A 1.261 1.261 0 0 0 5.371 7.033 L 5.371 10.646 Q 5.371 10.762 5.554 10.878 A 1.261 1.261 0 0 0 5.664 10.939 L 9.375 10.939 A 7.615 7.615 0 0 1 10.649 11.036 Q 12.988 11.435 12.988 13.478 A 2.042 2.042 0 0 1 11.833 15.427 Q 10.967 15.88 9.451 15.916 A 11.251 11.251 0 0 1 9.18 15.92 L 5.664 15.92 Q 5.548 15.92 5.433 16.102 A 1.261 1.261 0 0 0 5.371 16.213 L 5.371 21.974 Q 5.371 25.588 2.735 25.588 L 2.637 25.588 A 2.684 2.684 0 0 1 1.392 25.317 Q 0.28 24.744 0.056 22.952 A 7.926 7.926 0 0 1 0 21.974 L 0 5.275 A 7.096 7.096 0 0 1 0.069 4.246 Q 0.247 3.036 0.886 2.46 A 1.873 1.873 0 0 1 1.172 2.248 A 1.91 1.91 0 0 1 1.7 2.007 Q 2.613 1.722 4.583 1.672 A 35.021 35.021 0 0 1 5.469 1.662 Z M 185.205 12.404 L 185.205 21.974 A 48.161 48.161 0 0 1 185.121 24.954 Q 184.789 30.28 183.154 31.545 A 8.728 8.728 0 0 1 176.752 34.831 A 12.176 12.176 0 0 1 175.83 34.865 L 174.756 34.865 A 14.601 14.601 0 0 1 172.151 34.649 Q 169.109 34.096 167.529 32.131 L 167.627 32.131 A 11.063 11.063 0 0 0 170.896 33.31 Q 172.237 33.578 173.769 33.594 A 18.816 18.816 0 0 0 173.975 33.595 A 13.43 13.43 0 0 0 177.456 33.177 Q 181.549 32.078 183.15 28.098 A 11.092 11.092 0 0 0 183.252 27.834 A 10.384 10.384 0 0 0 183.606 26.345 Q 183.737 25.565 183.794 24.65 A 24.209 24.209 0 0 0 183.838 23.146 L 183.838 10.646 Q 183.838 10.04 183.57 8.965 A 19.313 19.313 0 0 0 183.447 8.498 Q 184.962 9.381 185.172 11.642 A 8.26 8.26 0 0 1 185.205 12.404 Z M 142.774 11.525 L 142.481 11.525 Q 141.309 11.72 141.309 12.404 Q 141.309 13.257 145.137 14.675 A 45.227 45.227 0 0 0 145.606 14.845 Q 149.317 16.579 149.317 19.924 A 4.778 4.778 0 0 1 147.617 23.582 Q 146.896 24.235 145.87 24.784 A 12.832 12.832 0 0 1 145.02 25.197 Q 143.795 25.553 142.773 25.585 A 6.365 6.365 0 0 1 142.578 25.588 L 141.797 25.588 A 10.018 10.018 0 0 1 139.61 25.367 Q 136.775 24.732 135.742 22.267 L 135.742 21.681 A 5.372 5.372 0 0 1 135.951 20.797 Q 136.1 20.355 136.319 20.047 A 1.599 1.599 0 0 1 137.695 19.338 A 1.512 1.512 0 0 1 138.01 19.389 Q 138.768 19.571 140.945 20.399 A 136.276 136.276 0 0 1 141.992 20.802 A 30.814 30.814 0 0 0 142.169 20.836 Q 142.519 20.9 142.578 20.9 Q 143.54 20.797 143.825 20.356 A 0.779 0.779 0 0 0 143.945 19.924 L 143.945 19.533 Q 143.945 19.093 138.965 16.896 A 8.103 8.103 0 0 1 137.705 15.982 Q 137.049 15.392 136.684 14.734 A 3.547 3.547 0 0 1 136.231 12.99 L 136.231 12.306 A 4.603 4.603 0 0 1 138.247 8.425 Q 139.106 7.793 140.332 7.326 Q 141.333 6.935 142.676 6.935 A 11.207 11.207 0 0 1 144.855 7.131 Q 147.803 7.717 148.828 10.06 A 1.663 1.663 0 0 0 148.837 10.24 Q 148.858 10.429 148.925 10.548 A 0.502 0.502 0 0 0 148.926 10.549 Q 148.634 12.616 146.976 12.781 A 3.005 3.005 0 0 1 146.68 12.795 A 1.054 1.054 0 0 1 146.474 12.757 Q 145.746 12.576 142.774 11.525 Z M 68.457 2.931 L 68.457 22.072 Q 68.457 25.52 66.014 25.586 A 3.564 3.564 0 0 1 65.918 25.588 Q 64.613 25.588 63.668 24.224 A 5.588 5.588 0 0 1 63.477 23.927 L 63.184 23.927 A 4.967 4.967 0 0 1 59.789 25.651 A 7.001 7.001 0 0 1 59.082 25.685 A 6.907 6.907 0 0 1 53.783 23.231 Q 52.871 22.222 52.104 20.798 A 17.158 17.158 0 0 1 51.758 20.119 Q 51.074 18.166 51.074 16.213 A 9.774 9.774 0 0 1 51.912 12.098 Q 52.909 9.92 55.094 8.39 A 12.899 12.899 0 0 1 56.348 7.619 A 8.103 8.103 0 0 1 58.089 7.188 A 7.043 7.043 0 0 1 58.985 7.131 L 59.57 7.131 A 4.933 4.933 0 0 1 61.031 7.336 A 3.804 3.804 0 0 1 62.891 8.595 L 62.988 8.595 A 0.378 0.378 0 0 0 63.222 8.369 Q 63.255 8.293 63.269 8.192 A 1.269 1.269 0 0 0 63.281 8.01 L 63.281 3.517 A 6.63 6.63 0 0 1 63.394 2.234 Q 63.837 0.002 66.016 0.002 A 2.047 2.047 0 0 1 67.886 1.048 Q 68.131 1.455 68.284 2.021 A 6.686 6.686 0 0 1 68.457 2.931 Z M 239.356 7.131 L 239.844 7.131 A 6.835 6.835 0 0 1 245.674 10.177 Q 246.483 11.302 247.092 12.843 A 17.38 17.38 0 0 1 247.363 13.576 A 12.79 12.79 0 0 1 247.656 16.31 A 10.657 10.657 0 0 1 246.953 20.276 Q 245.897 22.933 243.255 24.631 A 12.893 12.893 0 0 1 242.09 25.295 A 16.942 16.942 0 0 1 241.181 25.501 Q 240.717 25.592 240.315 25.638 A 6.742 6.742 0 0 1 239.551 25.685 A 5.791 5.791 0 0 1 237.997 25.488 A 4.238 4.238 0 0 1 235.938 24.22 L 235.742 24.22 A 0.338 0.338 0 0 0 235.664 24.239 Q 235.547 24.284 235.547 24.416 L 235.547 28.615 Q 235.547 32.355 232.91 32.422 A 3.823 3.823 0 0 1 232.813 32.424 A 2.476 2.476 0 0 1 231.571 32.13 Q 230.571 31.562 230.342 29.896 A 8.001 8.001 0 0 1 230.274 28.81 L 230.274 10.842 A 7.009 7.009 0 0 1 230.385 9.528 Q 230.797 7.38 232.727 7.238 A 3.828 3.828 0 0 1 233.008 7.228 A 2.175 2.175 0 0 1 234.392 7.739 Q 234.721 8.002 235.023 8.4 A 5.6 5.6 0 0 1 235.352 8.888 L 235.547 8.888 A 4.675 4.675 0 0 1 238.924 7.146 A 5.939 5.939 0 0 1 239.356 7.131 Z M 246.289 9.865 L 246.289 9.767 A 9.739 9.739 0 0 1 249.575 16.613 A 13.414 13.414 0 0 1 249.61 17.58 A 10.957 10.957 0 0 1 248.737 22.039 Q 247.329 25.236 243.652 27.15 A 19.301 19.301 0 0 1 242.57 27.408 Q 242.018 27.521 241.538 27.579 A 7.687 7.687 0 0 1 240.625 27.638 A 5.44 5.44 0 0 1 238.875 27.337 A 7.541 7.541 0 0 1 237.598 26.76 L 237.5 26.76 L 237.5 28.517 A 19.035 19.035 0 0 1 237.428 30.253 Q 237.163 33.128 235.933 33.884 A 1.776 1.776 0 0 1 235.742 33.986 A 4.526 4.526 0 0 1 235.411 34.096 Q 234.934 34.236 234.18 34.377 A 3.483 3.483 0 0 1 233.019 34.192 Q 232.115 33.875 231.543 33.01 L 231.543 32.814 Q 232.035 32.955 232.426 32.994 A 2.887 2.887 0 0 0 232.715 33.01 L 233.301 33.01 A 2.316 2.316 0 0 0 235.244 31.983 Q 235.654 31.426 235.938 30.568 A 6.641 6.641 0 0 0 236.125 29.261 A 7.652 7.652 0 0 0 236.133 28.908 L 236.133 25.588 L 236.231 25.392 A 4.932 4.932 0 0 0 237.991 26.126 A 6.993 6.993 0 0 0 239.453 26.271 L 239.844 26.271 Q 244.662 26.271 247.362 20.81 A 17.497 17.497 0 0 0 247.461 20.607 A 9.888 9.888 0 0 0 248.239 17.043 A 9.502 9.502 0 0 0 248.242 16.799 L 248.242 15.724 A 9.764 9.764 0 0 0 246.747 10.56 A 12.187 12.187 0 0 0 246.289 9.865 Z M 94.531 0.099 L 94.727 0.099 Q 97.137 0.312 97.798 1.451 A 1.941 1.941 0 0 1 98.047 2.443 Q 98.144 2.443 98.145 2.825 A 3.044 3.044 0 0 1 98.145 2.834 A 1.733 1.733 0 0 1 97.28 4.405 Q 96.948 4.61 96.489 4.741 A 5.341 5.341 0 0 1 95.801 4.885 Q 94.907 4.885 94.686 5.592 A 1.54 1.54 0 0 0 94.629 5.861 L 94.629 7.814 A 0.338 0.338 0 0 0 94.648 7.893 Q 94.692 8.01 94.824 8.01 L 95.508 8.01 Q 97.02 8.01 97.869 8.711 A 2.678 2.678 0 0 1 98.633 9.767 L 98.633 10.451 A 1.772 1.772 0 0 1 97.555 12.143 Q 96.633 12.599 94.922 12.599 L 94.824 12.599 A 0.338 0.338 0 0 0 94.746 12.618 Q 94.629 12.662 94.629 12.795 L 94.629 20.119 Q 94.629 23.977 93.652 25.019 A 1.151 1.151 0 0 1 92.969 25.392 A 0.072 0.072 0 0 1 92.925 25.444 Q 92.784 25.529 92.193 25.635 A 15.577 15.577 0 0 1 91.895 25.685 A 2.684 2.684 0 0 1 90.65 25.415 Q 89.537 24.841 89.314 23.049 A 7.926 7.926 0 0 1 89.258 22.072 L 89.258 13.674 L 89.356 12.697 Q 87.214 12.47 86.495 11.596 A 1.598 1.598 0 0 1 86.133 10.549 L 86.133 10.06 A 1.615 1.615 0 0 1 86.884 8.697 Q 87.521 8.242 88.699 7.997 A 10.276 10.276 0 0 1 89.16 7.912 L 89.16 7.814 A 16.408 16.408 0 0 1 89.365 5.095 Q 90.209 0.099 94.531 0.099 Z M 119.043 10.402 L 118.75 8.937 L 118.848 8.937 A 2.851 2.851 0 0 1 120.257 10.984 A 4.057 4.057 0 0 1 120.313 11.672 A 2.682 2.682 0 0 1 120.191 12.295 Q 119.748 13.876 117.699 18.714 A 329.716 329.716 0 0 1 116.699 21.047 Q 111.841 32.839 110.938 34.23 Q 110.01 35.109 109.18 35.109 L 108.692 35.109 Q 107.149 35.109 106.22 33.881 A 4.076 4.076 0 0 1 106.055 33.644 Q 106.132 33.644 106.148 33.583 A 0.144 0.144 0 0 0 106.152 33.547 A 4.689 4.689 0 0 0 107.812 33.84 Q 109.996 33.84 111.504 29.019 A 24.613 24.613 0 0 0 111.524 28.957 A 1972.358 1972.358 0 0 0 113.263 24.888 Q 118.945 11.553 118.945 10.89 A 1.663 1.663 0 0 1 118.955 10.711 Q 118.975 10.522 119.043 10.403 A 0.502 0.502 0 0 1 119.043 10.402 Z M 224.463 8.205 L 224.561 8.205 Q 226.221 9.133 226.221 11.916 L 226.221 19.631 Q 226.221 24.993 221.733 26.804 A 10.731 10.731 0 0 1 220.361 27.248 Q 219.458 27.541 218.115 27.541 L 217.139 27.541 A 9.564 9.564 0 0 1 214.358 27.156 A 7.401 7.401 0 0 1 210.791 24.806 L 210.889 24.806 Q 212.79 26.088 215.701 26.248 A 15.508 15.508 0 0 0 216.553 26.271 A 11.363 11.363 0 0 0 219.625 25.887 Q 223.154 24.896 224.472 21.353 A 10.142 10.142 0 0 0 224.658 20.802 Q 224.92 19.383 224.948 18.237 A 11.052 11.052 0 0 0 224.951 17.97 L 224.951 10.939 Q 224.951 9.401 224.463 8.205 Z M 13.574 12.892 L 13.379 12.209 L 13.574 12.209 A 3.177 3.177 0 0 1 14.407 12.964 Q 14.917 13.64 14.94 14.559 A 3.505 3.505 0 0 1 14.942 14.65 Q 14.942 17.337 11.683 17.784 A 10.564 10.564 0 0 1 10.254 17.873 L 7.324 17.873 L 7.324 22.951 A 8.787 8.787 0 0 1 7.179 24.625 Q 6.611 27.541 3.809 27.541 A 3.19 3.19 0 0 1 2.636 27.334 Q 1.807 27.009 1.27 26.174 L 1.27 25.978 L 2.637 26.271 A 5.658 5.658 0 0 0 3.927 25.984 Q 5.636 25.364 5.834 23.62 A 4.216 4.216 0 0 0 5.86 23.146 A 0.107 0.107 0 0 0 5.926 23.054 Q 6.054 22.656 6.055 20.537 A 69.221 69.221 0 0 0 6.055 20.51 L 6.055 16.701 A 0.338 0.338 0 0 1 6.073 16.622 Q 6.118 16.506 6.25 16.506 L 9.57 16.506 A 7.207 7.207 0 0 0 10.974 16.38 Q 11.737 16.228 12.286 15.892 A 2.817 2.817 0 0 0 13.574 14.064 L 13.574 12.892 Z M 99.317 10.353 L 99.121 9.279 L 99.317 9.279 A 2.639 2.639 0 0 1 100.206 10.147 Q 100.586 10.768 100.586 11.623 Q 100.586 13.499 98.492 14.245 A 6.092 6.092 0 0 1 98.145 14.357 L 96.485 14.552 L 96.485 23.244 A 7.217 7.217 0 0 1 96.34 24.75 Q 95.867 26.961 93.848 27.541 L 92.676 27.541 Q 91.702 27.541 90.834 26.626 A 5.11 5.11 0 0 1 90.527 26.271 L 90.527 26.076 A 30.796 30.796 0 0 0 90.952 26.152 Q 91.514 26.249 91.784 26.267 A 1.654 1.654 0 0 0 91.895 26.271 A 3.194 3.194 0 0 0 93.537 25.871 Q 95.215 24.888 95.215 21.486 L 95.215 13.381 A 0.104 0.104 0 0 1 95.287 13.307 Q 95.538 13.18 96.664 13.052 A 34.05 34.05 0 0 1 97.266 12.99 Q 99.317 12.16 99.317 10.353 Z M 23.657 8.498 L 23.755 8.498 A 3.132 3.132 0 0 1 25.013 10.043 Q 25.246 10.617 25.344 11.349 A 8.699 8.699 0 0 1 25.415 12.502 L 25.415 23.146 A 7.879 7.879 0 0 1 25.276 24.693 Q 25.107 25.535 24.733 26.144 A 3.151 3.151 0 0 1 22.876 27.541 L 21.704 27.541 Q 20.508 27.541 19.556 26.271 L 19.458 26.076 L 19.556 26.076 A 30.796 30.796 0 0 0 19.98 26.152 Q 20.543 26.249 20.812 26.267 A 1.654 1.654 0 0 0 20.923 26.271 Q 23.411 26.271 23.979 23.453 A 7.384 7.384 0 0 0 24.048 23.049 Q 24.146 21.584 24.146 20.607 L 24.146 12.795 Q 24.146 9.865 23.657 8.498 Z M 79.346 8.498 L 79.443 8.498 A 3.132 3.132 0 0 1 80.701 10.043 Q 80.934 10.617 81.032 11.349 A 8.699 8.699 0 0 1 81.104 12.502 L 81.104 23.146 A 7.879 7.879 0 0 1 80.964 24.693 Q 80.795 25.535 80.421 26.144 A 3.151 3.151 0 0 1 78.565 27.541 L 77.393 27.541 Q 76.196 27.541 75.244 26.271 L 75.147 26.076 L 75.244 26.076 A 30.796 30.796 0 0 0 75.669 26.152 Q 76.231 26.249 76.501 26.267 A 1.654 1.654 0 0 0 76.611 26.271 Q 79.1 26.271 79.667 23.453 A 7.384 7.384 0 0 0 79.736 23.049 Q 79.834 21.584 79.834 20.607 L 79.834 12.795 Q 79.834 9.865 79.346 8.498 Z M 159.18 8.498 L 159.277 8.498 A 3.132 3.132 0 0 1 160.535 10.043 Q 160.768 10.617 160.866 11.349 A 8.699 8.699 0 0 1 160.938 12.502 L 160.938 23.146 A 7.879 7.879 0 0 1 160.798 24.693 Q 160.629 25.535 160.255 26.144 A 3.151 3.151 0 0 1 158.399 27.541 L 157.227 27.541 Q 156.03 27.541 155.078 26.271 L 154.981 26.076 L 155.078 26.076 A 30.796 30.796 0 0 0 155.502 26.152 Q 156.065 26.249 156.335 26.267 A 1.654 1.654 0 0 0 156.445 26.271 Q 158.934 26.271 159.501 23.453 A 7.384 7.384 0 0 0 159.57 23.049 Q 159.668 21.584 159.668 20.607 L 159.668 12.795 Q 159.668 9.865 159.18 8.498 Z M 45.972 9.572 L 45.972 9.474 L 46.069 9.474 Q 48.511 11.11 48.511 16.896 L 48.511 21.779 Q 48.511 26.192 46.886 27.175 A 1.892 1.892 0 0 1 46.753 27.248 A 7.641 7.641 0 0 1 46.232 27.402 Q 45.691 27.541 45.288 27.541 L 44.995 27.541 A 3.069 3.069 0 0 1 43.819 27.323 Q 43.122 27.037 42.627 26.374 A 3.617 3.617 0 0 1 42.554 26.271 L 42.554 26.076 A 30.796 30.796 0 0 0 42.978 26.152 Q 43.541 26.249 43.81 26.267 A 1.654 1.654 0 0 0 43.921 26.271 Q 47.144 26.271 47.144 22.17 L 47.144 13.967 A 9.369 9.369 0 0 0 46.903 11.794 A 7.163 7.163 0 0 0 45.972 9.572 Z M 203.443 9.572 L 203.443 9.474 L 203.54 9.474 Q 205.982 11.11 205.982 16.896 L 205.982 21.779 Q 205.982 26.192 204.357 27.175 A 1.892 1.892 0 0 1 204.224 27.248 A 7.641 7.641 0 0 1 203.703 27.402 Q 203.162 27.541 202.759 27.541 L 202.466 27.541 A 3.069 3.069 0 0 1 201.289 27.323 Q 200.592 27.037 200.098 26.374 A 3.617 3.617 0 0 1 200.025 26.271 L 200.025 26.076 A 30.796 30.796 0 0 0 200.449 26.152 Q 201.011 26.249 201.281 26.267 A 1.654 1.654 0 0 0 201.392 26.271 Q 204.614 26.271 204.614 22.17 L 204.614 13.967 A 9.369 9.369 0 0 0 204.374 11.794 A 7.163 7.163 0 0 0 203.443 9.572 Z M 149.219 16.896 L 149.317 16.896 A 6.103 6.103 0 0 1 150.544 18.309 A 4.845 4.845 0 0 1 151.27 20.9 A 5.804 5.804 0 0 1 148.661 25.882 Q 147.676 26.579 146.321 27.095 A 14.981 14.981 0 0 1 145.606 27.345 Q 144.36 27.541 143.262 27.541 A 11.007 11.007 0 0 1 140.847 27.293 Q 139.265 26.937 138.115 26.07 A 6.245 6.245 0 0 1 137.012 25.002 L 137.207 25.002 A 9.375 9.375 0 0 0 141.587 26.26 A 11.259 11.259 0 0 0 142.09 26.271 Q 147.778 26.271 149.707 21.388 Q 149.883 20.551 149.901 20.032 A 3.281 3.281 0 0 0 149.902 19.924 L 149.902 19.338 A 3.394 3.394 0 0 0 149.836 18.701 Q 149.71 18.044 149.345 17.183 A 13.445 13.445 0 0 0 149.219 16.896 Z M 20.728 7.521 L 21.021 7.521 Q 23.051 7.521 23.393 10.021 A 8.257 8.257 0 0 1 23.462 11.135 L 23.462 22.072 A 7.615 7.615 0 0 1 23.365 23.346 Q 22.966 25.685 20.923 25.685 Q 19.562 25.685 18.858 24.57 A 3.544 3.544 0 0 1 18.579 24.025 Q 18.261 23.369 18.202 21.19 A 39.728 39.728 0 0 1 18.189 20.119 L 18.189 12.99 A 22.888 22.888 0 0 1 18.243 11.333 Q 18.429 8.786 19.246 8.033 A 1.14 1.14 0 0 1 20.044 7.717 A 0.103 0.103 0 0 1 20.099 7.631 Q 20.238 7.539 20.728 7.521 Z M 76.416 7.521 L 76.709 7.521 Q 78.74 7.521 79.081 10.021 A 8.257 8.257 0 0 1 79.151 11.135 L 79.151 22.072 A 7.615 7.615 0 0 1 79.054 23.346 Q 78.655 25.685 76.611 25.685 Q 75.251 25.685 74.546 24.57 A 3.544 3.544 0 0 1 74.268 24.025 Q 73.95 23.369 73.891 21.19 A 39.728 39.728 0 0 1 73.877 20.119 L 73.877 12.99 A 22.888 22.888 0 0 1 73.932 11.333 Q 74.118 8.786 74.935 8.033 A 1.14 1.14 0 0 1 75.733 7.717 A 0.103 0.103 0 0 1 75.787 7.631 Q 75.926 7.539 76.416 7.521 Z M 156.25 7.521 L 156.543 7.521 Q 158.574 7.521 158.915 10.021 A 8.257 8.257 0 0 1 158.985 11.135 L 158.985 22.072 A 7.615 7.615 0 0 1 158.888 23.346 Q 158.489 25.685 156.445 25.685 Q 155.085 25.685 154.38 24.57 A 3.544 3.544 0 0 1 154.102 24.025 Q 153.783 23.369 153.724 21.19 A 39.728 39.728 0 0 1 153.711 20.119 L 153.711 12.99 A 22.888 22.888 0 0 1 153.766 11.333 Q 153.952 8.786 154.769 8.033 A 1.14 1.14 0 0 1 155.567 7.717 A 0.103 0.103 0 0 1 155.621 7.631 Q 155.76 7.539 156.25 7.521 Z M 40.308 13.771 L 40.308 13.869 L 39.429 13.869 Q 37.671 13.869 37.671 16.506 L 37.671 21.779 Q 37.671 26.192 36.046 27.175 A 1.892 1.892 0 0 1 35.913 27.248 A 7.641 7.641 0 0 1 35.393 27.402 Q 34.851 27.541 34.448 27.541 L 34.155 27.541 A 3.069 3.069 0 0 1 32.979 27.323 Q 32.282 27.037 31.788 26.374 A 3.617 3.617 0 0 1 31.714 26.271 L 31.714 26.076 A 30.796 30.796 0 0 0 32.138 26.152 Q 32.701 26.249 32.971 26.267 A 1.654 1.654 0 0 0 33.081 26.271 Q 36.304 26.271 36.304 22.17 L 36.304 16.603 A 23.907 23.907 0 0 1 36.347 15.534 Q 36.518 12.892 37.28 12.892 Q 37.354 12.648 38.55 12.502 A 4.805 4.805 0 0 1 39.186 12.639 Q 40.308 12.972 40.308 13.771 Z M 197.778 13.771 L 197.778 13.869 L 196.9 13.869 Q 195.142 13.869 195.142 16.506 L 195.142 21.779 Q 195.142 26.192 193.517 27.175 A 1.892 1.892 0 0 1 193.384 27.248 A 7.641 7.641 0 0 1 192.863 27.402 Q 192.322 27.541 191.919 27.541 L 191.626 27.541 A 3.069 3.069 0 0 1 190.449 27.323 Q 189.752 27.037 189.258 26.374 A 3.617 3.617 0 0 1 189.185 26.271 L 189.185 26.076 A 30.796 30.796 0 0 0 189.609 26.152 Q 190.172 26.249 190.441 26.267 A 1.654 1.654 0 0 0 190.552 26.271 Q 193.775 26.271 193.775 22.17 L 193.775 16.603 A 23.907 23.907 0 0 1 193.818 15.534 Q 193.989 12.892 194.751 12.892 Q 194.824 12.648 196.021 12.502 A 4.805 4.805 0 0 1 196.657 12.639 Q 197.778 12.972 197.778 13.771 Z M 13.965 3.029 L 14.16 2.931 A 4.172 4.172 0 0 1 14.932 3.707 A 2.877 2.877 0 0 1 15.527 5.47 A 3.141 3.141 0 0 1 15.154 7.046 Q 14.433 8.316 12.317 8.607 A 10.172 10.172 0 0 1 10.938 8.693 L 7.324 8.693 L 7.324 10.06 A 0.281 0.281 0 0 1 7.315 10.138 Q 7.29 10.224 7.201 10.247 A 0.288 0.288 0 0 1 7.129 10.256 L 6.25 10.256 A 0.281 0.281 0 0 1 6.173 10.246 Q 6.086 10.221 6.063 10.133 A 0.288 0.288 0 0 1 6.055 10.06 L 6.055 7.521 A 0.338 0.338 0 0 1 6.073 7.443 Q 6.118 7.326 6.25 7.326 L 10.254 7.326 Q 13.574 7.326 14.16 4.885 L 14.16 3.81 A 1.636 1.636 0 0 0 13.965 3.029 Z M 149.121 9.084 L 149.219 9.084 A 4.153 4.153 0 0 1 150.092 9.872 A 2.989 2.989 0 0 1 150.781 11.818 L 150.781 11.916 Q 150.398 14.532 148.307 14.731 A 3.76 3.76 0 0 1 147.949 14.748 Q 142.798 13.307 141.992 12.404 A 0.338 0.338 0 0 1 142.011 12.326 Q 142.055 12.209 142.188 12.209 L 142.676 12.209 L 146.387 13.381 L 147.07 13.381 Q 148.926 13.381 149.512 10.842 L 149.512 10.646 A 3.235 3.235 0 0 0 149.273 9.4 A 3.108 3.108 0 0 0 149.121 9.084 Z M 213.916 8.205 L 214.014 8.205 A 3.139 3.139 0 0 1 215.345 9.871 Q 215.556 10.443 215.631 11.161 A 8.134 8.134 0 0 1 215.674 12.013 L 215.674 17.775 A 14.614 14.614 0 0 0 215.697 18.624 Q 215.72 19.025 215.768 19.367 A 6.046 6.046 0 0 0 215.869 19.924 Q 215.792 19.924 215.776 19.985 A 0.144 0.144 0 0 0 215.772 20.021 A 1.059 1.059 0 0 1 214.802 19.399 Q 214.515 18.873 214.435 17.905 A 9.947 9.947 0 0 1 214.404 17.092 L 214.404 10.646 Q 214.404 9.714 213.936 8.267 A 16.344 16.344 0 0 0 213.916 8.205 Z M 235.449 16.115 L 235.449 16.603 A 9.423 9.423 0 0 0 235.737 18.136 Q 235.955 18.907 236.301 19.455 A 2.744 2.744 0 0 0 238.77 20.802 A 3.206 3.206 0 0 0 240.522 20.34 Q 241.992 19.408 242.285 16.603 L 242.285 16.31 Q 242.187 14.358 241.329 13.263 A 3.428 3.428 0 0 0 239.649 12.111 A 5.586 5.586 0 0 0 239.027 12.027 A 4.685 4.685 0 0 0 238.672 12.013 A 4.625 4.625 0 0 0 237.151 12.563 Q 235.449 13.578 235.449 16.115 Z M 56.543 15.822 L 56.543 16.701 A 5.139 5.139 0 0 0 56.752 18.213 A 3.671 3.671 0 0 0 58.789 20.51 A 1.636 1.636 0 0 0 59.57 20.705 L 60.254 20.705 A 2.431 2.431 0 0 0 62.252 19.669 Q 62.584 19.238 62.847 18.629 A 8.146 8.146 0 0 0 63.184 17.677 A 2.658 2.658 0 0 0 63.25 17.332 Q 63.281 17.089 63.281 16.799 L 63.281 16.017 A 5.205 5.205 0 0 0 63.069 14.479 Q 62.577 12.885 60.946 12.157 A 5.181 5.181 0 0 0 60.84 12.111 A 0.743 0.743 0 0 0 60.543 12.018 A 0.922 0.922 0 0 0 60.449 12.013 L 59.57 12.013 A 2.455 2.455 0 0 0 57.392 13.286 Q 57.083 13.78 56.863 14.465 A 9.613 9.613 0 0 0 56.543 15.822 Z M 171.436 16.31 L 171.436 16.701 A 5.892 5.892 0 0 0 171.625 18.246 A 3.81 3.81 0 0 0 173.584 20.705 A 1.636 1.636 0 0 0 174.365 20.9 L 175.244 20.9 Q 178.248 20.198 178.271 16.66 A 8.429 8.429 0 0 0 178.272 16.603 Q 178.079 14.721 177.399 13.663 A 2.839 2.839 0 0 0 174.854 12.306 Q 171.875 12.306 171.436 16.31 Z M 24.048 1.271 L 24.146 1.271 A 5.145 5.145 0 0 1 25.056 2.168 A 3.397 3.397 0 0 1 25.806 4.299 L 25.806 4.494 A 3.365 3.365 0 0 1 25.284 6.369 Q 24.872 7.005 24.132 7.471 A 5.734 5.734 0 0 1 23.267 7.912 L 23.169 7.912 A 3.153 3.153 0 0 0 22.593 7.361 A 2.133 2.133 0 0 0 21.314 6.935 L 20.435 6.935 Q 20.208 6.935 19.647 7.103 A 11.43 11.43 0 0 0 19.556 7.131 A 15.625 15.625 0 0 1 19.441 6.992 Q 19.146 6.629 19.084 6.499 A 0.136 0.136 0 0 1 19.068 6.447 L 19.165 6.447 A 14.569 14.569 0 0 0 19.522 6.561 Q 20.009 6.71 20.25 6.735 A 0.851 0.851 0 0 0 20.337 6.74 L 21.411 6.74 A 2.595 2.595 0 0 0 23.46 5.748 Q 23.808 5.339 24.094 4.761 A 7.285 7.285 0 0 0 24.341 4.201 A 0.38 0.38 0 0 0 24.38 4.11 Q 24.453 3.886 24.525 3.233 A 19.76 19.76 0 0 0 24.536 3.127 A 2.749 2.749 0 0 0 24.489 2.641 Q 24.384 2.06 24.048 1.271 Z M 79.736 1.271 L 79.834 1.271 A 5.145 5.145 0 0 1 80.745 2.168 A 3.397 3.397 0 0 1 81.494 4.299 L 81.494 4.494 A 3.365 3.365 0 0 1 80.973 6.369 Q 80.56 7.005 79.82 7.471 A 5.734 5.734 0 0 1 78.955 7.912 L 78.858 7.912 A 3.153 3.153 0 0 0 78.282 7.361 A 2.133 2.133 0 0 0 77.002 6.935 L 76.123 6.935 Q 75.897 6.935 75.335 7.103 A 11.43 11.43 0 0 0 75.244 7.131 A 15.625 15.625 0 0 1 75.13 6.992 Q 74.834 6.629 74.772 6.499 A 0.136 0.136 0 0 1 74.756 6.447 L 74.854 6.447 A 14.569 14.569 0 0 0 75.21 6.561 Q 75.698 6.71 75.938 6.735 A 0.851 0.851 0 0 0 76.026 6.74 L 77.1 6.74 A 2.595 2.595 0 0 0 79.148 5.748 Q 79.496 5.339 79.782 4.761 A 7.285 7.285 0 0 0 80.029 4.201 A 0.38 0.38 0 0 0 80.069 4.11 Q 80.141 3.886 80.213 3.233 A 19.76 19.76 0 0 0 80.225 3.127 A 2.749 2.749 0 0 0 80.177 2.641 Q 80.072 2.06 79.736 1.271 Z M 159.57 1.271 L 159.668 1.271 A 5.145 5.145 0 0 1 160.579 2.168 A 3.397 3.397 0 0 1 161.328 4.299 L 161.328 4.494 A 3.365 3.365 0 0 1 160.807 6.369 Q 160.394 7.005 159.654 7.471 A 5.734 5.734 0 0 1 158.789 7.912 L 158.692 7.912 A 3.153 3.153 0 0 0 158.116 7.361 A 2.133 2.133 0 0 0 156.836 6.935 L 155.957 6.935 Q 155.731 6.935 155.169 7.103 A 11.43 11.43 0 0 0 155.078 7.131 A 15.625 15.625 0 0 1 154.964 6.992 Q 154.668 6.629 154.606 6.499 A 0.136 0.136 0 0 1 154.59 6.447 L 154.688 6.447 A 14.569 14.569 0 0 0 155.044 6.561 Q 155.532 6.71 155.772 6.735 A 0.851 0.851 0 0 0 155.86 6.74 L 156.934 6.74 A 2.595 2.595 0 0 0 158.982 5.748 Q 159.33 5.339 159.616 4.761 A 7.285 7.285 0 0 0 159.863 4.201 A 0.38 0.38 0 0 0 159.903 4.11 Q 159.975 3.886 160.047 3.233 A 19.76 19.76 0 0 0 160.059 3.127 A 2.749 2.749 0 0 0 160.011 2.641 Q 159.906 2.06 159.57 1.271 Z M 59.766 12.599 L 60.059 12.599 A 2.024 2.024 0 0 1 61.413 13.127 Q 61.786 13.449 62.11 13.967 Q 62.032 13.967 62.016 14.028 A 0.144 0.144 0 0 0 62.012 14.064 A 0.794 0.794 0 0 0 61.903 14.021 Q 61.707 13.958 61.304 13.895 A 11.983 11.983 0 0 0 61.133 13.869 A 2.193 2.193 0 0 0 59.117 15.024 Q 58.646 15.827 58.496 17.189 L 58.496 17.97 Q 58.496 19.045 58.887 19.728 L 58.692 19.826 Q 57.129 18.654 57.129 16.31 A 5.698 5.698 0 0 1 57.279 14.947 Q 57.724 13.142 59.496 12.663 A 4.389 4.389 0 0 1 59.766 12.599 Z M 241.016 14.064 L 240.918 14.064 L 240.332 13.967 L 239.844 13.967 A 1.976 1.976 0 0 0 238.048 15.061 Q 237.586 15.861 237.408 17.244 A 11.054 11.054 0 0 0 237.402 17.287 L 237.402 17.97 A 4.578 4.578 0 0 0 237.587 19.236 A 5.678 5.678 0 0 0 237.793 19.826 L 237.695 19.826 Q 236.035 18.849 236.035 16.31 A 8.687 8.687 0 0 1 236.286 14.956 Q 236.941 12.599 238.867 12.599 A 8.379 8.379 0 0 1 239.597 12.815 Q 241.016 13.31 241.016 14.064 Z M 174.17 12.99 L 175.049 12.99 A 1.945 1.945 0 0 1 176.309 13.461 Q 176.586 13.688 176.837 14.024 A 4.488 4.488 0 0 1 177.002 14.26 L 177.002 14.357 Q 176.318 14.277 175.899 14.263 A 4.952 4.952 0 0 0 175.733 14.26 A 1.76 1.76 0 0 0 174.347 14.946 Q 173.748 15.653 173.389 17.092 L 173.389 18.166 A 4.578 4.578 0 0 0 173.573 19.431 A 5.678 5.678 0 0 0 173.779 20.021 L 173.682 20.021 A 3.501 3.501 0 0 1 172.073 17.454 A 5.32 5.32 0 0 1 172.022 16.701 A 5.368 5.368 0 0 1 172.192 15.302 A 3.408 3.408 0 0 1 174.17 12.99 Z M 169.092 24.904 L 169.19 24.904 A 7.04 7.04 0 0 0 173.389 26.271 L 173.682 26.271 A 6.723 6.723 0 0 0 175.579 26.014 A 5.532 5.532 0 0 0 177.393 25.099 L 177.49 25.099 L 177.49 25.197 A 1.889 1.889 0 0 1 176.819 26.633 Q 176.236 27.166 175.147 27.541 L 174.463 27.541 A 6.632 6.632 0 0 1 169.822 25.664 A 9.375 9.375 0 0 1 169.092 24.904 Z M 20.142 0.197 L 20.728 0.099 L 21.021 0.099 A 2.551 2.551 0 0 1 23.114 1.17 Q 23.433 1.579 23.689 2.146 A 6.976 6.976 0 0 1 23.853 2.541 L 23.853 3.517 Q 23.853 5.049 22.049 5.874 A 6.36 6.36 0 0 1 21.607 6.056 A 0.262 0.262 0 0 1 21.527 6.096 Q 21.355 6.154 20.923 6.154 L 20.825 6.154 A 5.422 5.422 0 0 1 19.653 5.865 Q 18.041 5.249 17.908 3.624 A 3.688 3.688 0 0 1 17.896 3.322 L 17.896 3.029 A 2.647 2.647 0 0 1 19.006 0.803 Q 19.431 0.484 20.018 0.245 A 6.067 6.067 0 0 1 20.142 0.197 Z M 75.83 0.197 L 76.416 0.099 L 76.709 0.099 A 2.551 2.551 0 0 1 78.803 1.17 Q 79.121 1.579 79.377 2.146 A 6.976 6.976 0 0 1 79.541 2.541 L 79.541 3.517 Q 79.541 5.049 77.737 5.874 A 6.36 6.36 0 0 1 77.295 6.056 A 0.262 0.262 0 0 1 77.215 6.096 Q 77.044 6.154 76.611 6.154 L 76.514 6.154 A 5.422 5.422 0 0 1 75.341 5.865 Q 73.73 5.249 73.596 3.624 A 3.688 3.688 0 0 1 73.584 3.322 L 73.584 3.029 A 2.647 2.647 0 0 1 74.695 0.803 Q 75.119 0.484 75.707 0.245 A 6.067 6.067 0 0 1 75.83 0.197 Z M 155.664 0.197 L 156.25 0.099 L 156.543 0.099 A 2.551 2.551 0 0 1 158.637 1.17 Q 158.955 1.579 159.211 2.146 A 6.976 6.976 0 0 1 159.375 2.541 L 159.375 3.517 Q 159.375 5.049 157.571 5.874 A 6.36 6.36 0 0 1 157.129 6.056 A 0.262 0.262 0 0 1 157.049 6.096 Q 156.878 6.154 156.445 6.154 L 156.348 6.154 A 5.422 5.422 0 0 1 155.175 5.865 Q 153.564 5.249 153.43 3.624 A 3.688 3.688 0 0 1 153.418 3.322 L 153.418 3.029 A 2.647 2.647 0 0 1 154.529 0.803 Q 154.953 0.484 155.541 0.245 A 6.067 6.067 0 0 1 155.664 0.197 Z M 98.535 1.369 L 98.633 1.369 A 4.912 4.912 0 0 1 99.294 1.971 Q 99.624 2.337 99.799 2.72 A 2.123 2.123 0 0 1 100 3.615 L 100 4.396 Q 100 6.236 96.994 6.89 A 11.033 11.033 0 0 1 96.777 6.935 Q 96.655 6.935 96.387 7.424 L 95.508 7.424 Q 95.392 7.424 95.277 7.241 A 1.261 1.261 0 0 1 95.215 7.131 L 95.215 5.959 A 0.217 0.217 0 0 1 95.317 5.802 Q 95.672 5.519 97.266 5.177 A 2.886 2.886 0 0 0 98.096 4.574 Q 98.646 3.985 98.719 3.109 A 3.307 3.307 0 0 0 98.731 2.834 L 98.731 2.443 A 0.645 0.645 0 0 0 98.724 2.369 Q 98.7 2.186 98.589 1.634 A 62.822 62.822 0 0 0 98.535 1.369 Z M 107.324 8.84 L 107.422 8.84 A 0.736 0.736 0 0 1 107.923 9.152 Q 108.814 10.169 110.21 14.486 A 90.255 90.255 0 0 1 110.645 15.871 A 0.152 0.152 0 0 1 110.64 15.897 Q 110.613 16.015 110.422 16.625 A 106.569 106.569 0 0 1 110.352 16.847 L 110.156 16.847 A 1.085 1.085 0 0 0 110.112 16.685 Q 109.848 15.844 108.014 10.75 A 1959.026 1959.026 0 0 0 107.324 8.84 Z M 137.793 16.994 L 137.793 16.896 A 23.454 23.454 0 0 0 139.275 17.736 Q 140.056 18.145 140.98 18.57 A 55.733 55.733 0 0 0 142.969 19.435 L 143.36 19.826 Q 143.36 19.942 143.177 20.057 A 1.261 1.261 0 0 1 143.067 20.119 A 10.493 10.493 0 0 1 139.347 18.338 A 13.686 13.686 0 0 1 137.793 16.994 Z M 87.012 12.892 L 87.207 12.892 A 16.137 16.137 0 0 1 87.601 12.981 Q 88.389 13.171 88.539 13.315 A 0.094 0.094 0 0 1 88.574 13.381 L 88.574 13.967 A 0.281 0.281 0 0 1 88.565 14.044 Q 88.54 14.131 88.451 14.154 A 0.288 0.288 0 0 1 88.379 14.162 A 3.151 3.151 0 0 1 87.387 13.422 A 2.996 2.996 0 0 1 87.012 12.892 Z" vector-effect="non-scaling-stroke"/></g></svg>